<svg xmlns="http://www.w3.org/2000/svg" xmlns:xlink="http://www.w3.org/1999/xlink" width="1080" zoomAndPan="magnify" viewBox="0 0 810 809.999993" height="1080" preserveAspectRatio="xMidYMid meet" version="1.0"><defs><clipPath id="f5d74aeefb"><path d="M 81 24 L 794 24 L 794 788.085938 L 81 788.085938 Z M 81 24 " clip-rule="nonzero"/></clipPath></defs><path fill="#f0ccab" d="M 502.109375 351.257812 C 502.058594 351.4375 494.933594 374.851562 484.066406 394.023438 C 477.546875 405.527344 469.679688 415.503906 461.183594 418.015625 C 457.59375 419.078125 451.105469 410.605469 436.800781 400.71875 C 423.996094 391.867188 404.941406 381.917969 376.148438 376.792969 C 372.042969 368.925781 367.726562 361.257812 362.125 354.71875 C 334.554688 322.53125 305.625 305.382812 280.707031 285.535156 C 262.304688 270.878906 252.820312 256.710938 252.820312 256.710938 C 252.820312 256.710938 325.539062 211.148438 365.027344 210.292969 C 368.015625 210.226562 382.59375 209.128906 384.65625 209.875 C 386.664062 222.398438 400.457031 240.742188 408.683594 250.488281 C 409.808594 251.824219 434.125 265.585938 446.914062 280.632812 C 452.132812 286.765625 452.597656 301.933594 453.21875 302.785156 C 454.679688 304.796875 457.167969 306.265625 459.726562 305.855469 C 465.660156 304.902344 467.925781 295.628906 468.222656 290.734375 C 468.609375 284.457031 466.925781 278.171875 464.355469 272.492188 C 460.71875 264.441406 454.851562 257.609375 450.050781 250.214844 L 439.5 232.964844 L 479.460938 236.234375 C 479.460938 236.234375 520.378906 278.195312 520.796875 278.3125 C 520.941406 278.914062 515.671875 303.265625 502.109375 351.257812 Z M 736.65625 92.035156 C 719.792969 64.46875 680.148438 32.789062 613.226562 29.882812 C 577.683594 28.335938 543.773438 44.765625 515.828125 69.613281 C 508.8125 75.847656 490.273438 104.503906 460.660156 123.355469 C 438.21875 137.644531 402.191406 143.753906 401.476562 144.8125 C 395.871094 143.507812 366.191406 141.019531 331.191406 137.078125 C 299.691406 133.53125 264.167969 123.886719 228.78125 128.429688 C 142.714844 139.484375 122.921875 186.855469 124.925781 223.5625 C 125.929688 241.933594 132.652344 270.46875 146.414062 299.285156 C 154.382812 315.972656 164.375 334.046875 176.257812 353.074219 C 198.265625 388.320312 226.753906 426.847656 260.863281 465.945312 C 324.914062 539.371094 360.648438 569.773438 363.621094 572.085938 C 364.28125 573.660156 405.367188 650.414062 424.316406 678.007812 C 424.707031 678.574219 429.75 736.078125 435.402344 778.941406 C 453.15625 775.082031 470.539062 769.578125 487.425781 762.4375 C 504.953125 755.03125 521.855469 745.863281 537.671875 735.1875 C 553.332031 724.613281 568.058594 712.472656 581.441406 699.101562 C 594.828125 685.722656 606.980469 671.007812 617.558594 655.359375 C 628.242188 639.558594 637.417969 622.664062 644.832031 605.152344 C 659.65625 570.121094 667.457031 532.996094 668.035156 494.730469 C 630.929688 470.949219 586.449219 449.304688 587.535156 443.394531 C 592.257812 417.667969 603.375 368.023438 605.222656 369.167969 C 617.300781 376.664062 629.597656 384.851562 644.058594 383.640625 C 645.4375 383.527344 646.777344 383.332031 648.078125 383.066406 C 654.527344 381.738281 659.992188 378.621094 664.726562 374.464844 C 673.285156 366.957031 703.683594 328.226562 714.785156 312.796875 C 718.34375 307.847656 727.324219 289.992188 727.324219 289.992188 C 727.289062 289.996094 726.710938 249.015625 725.714844 244.203125 C 730.144531 230.027344 745.28125 205.199219 751.191406 174.734375 C 755.988281 149.992188 754.703125 121.535156 736.65625 92.035156 " fill-opacity="1" fill-rule="nonzero"/><path fill="#d69264" d="M 415.433594 665.394531 L 460.949219 651.941406 L 504.542969 642.972656 L 635.960938 630.804688 L 631.546875 628.671875 C 620.683594 623.417969 615.242188 611.066406 618.699219 599.515625 L 623.136719 584.679688 L 598.777344 611.585938 L 515.4375 546.246094 L 553.003906 602.09375 C 560.015625 612.515625 553.929688 626.695312 541.542969 628.804688 C 521.394531 632.230469 494.683594 636.949219 479.863281 640.277344 C 455.238281 645.8125 428.867188 654.15625 415.433594 665.394531 Z M 588.519531 445.03125 C 588.519531 445.03125 580.828125 487.3125 585.957031 488.589844 C 591.085938 489.871094 601.984375 486.671875 601.984375 486.671875 Z M 453.253906 418.765625 L 500.054688 488.589844 C 500.054688 488.589844 495.433594 474.285156 491.601562 459.660156 C 489.050781 449.914062 486.847656 440.03125 486.59375 434.140625 C 485.902344 432.085938 485.792969 428.160156 486.054688 423.1875 C 487.125 403.179688 494.285156 366.238281 494.285156 366.238281 C 494.285156 366.238281 476.976562 407.875 469.921875 412.359375 C 462.871094 416.84375 453.253906 418.765625 453.253906 418.765625 Z M 379.40625 384.175781 L 381.792969 388.152344 C 381.996094 388.488281 382.128906 388.855469 382.1875 389.242188 L 384.597656 404.472656 C 385.070312 407.460938 389.140625 408.003906 390.382812 405.242188 C 392.894531 399.671875 394.980469 391.972656 391.953125 385.132812 C 390.6875 382.273438 387.785156 380.472656 382.53125 379.609375 C 379.960938 379.1875 378.066406 381.945312 379.40625 384.175781 Z M 258.417969 282.730469 C 271.371094 285.226562 282.734375 285.523438 282.734375 285.523438 L 262.21875 268.226562 L 255.167969 255.414062 L 234.652344 263.742188 L 223.113281 264.382812 C 228.449219 274.714844 244.371094 280.019531 258.417969 282.730469 Z M 177.597656 307.304688 C 177.597656 287.902344 176.460938 275.445312 157.332031 272.113281 C 157.25 272.097656 157.167969 272.082031 157.082031 272.070312 C 141.148438 269.304688 132.722656 259.257812 132.722656 259.257812 C 133.363281 281.679688 169.90625 343.179688 169.90625 343.179688 L 207.726562 397.628906 Z M 382.097656 211.214844 L 386.585938 186.234375 L 283.375 235.558594 C 283.375 235.558594 345.554688 211.214844 360.941406 211.214844 C 376.328125 211.214844 382.097656 211.214844 382.097656 211.214844 Z M 590.953125 422.136719 L 604.734375 368.863281 L 575.039062 345.308594 Z M 550.804688 281.089844 C 550.769531 280.800781 550.679688 280.550781 550.550781 280.332031 C 550.542969 280.269531 550.535156 280.214844 550.527344 280.183594 C 550.488281 280.164062 550.441406 280.144531 550.398438 280.121094 C 550.03125 279.667969 549.46875 279.421875 548.882812 279.382812 C 538.847656 274.246094 530.949219 265.203125 527.289062 254.523438 C 525.753906 250.058594 524.949219 242.457031 525.390625 235.746094 C 526.160156 223.953125 529.277344 213.183594 528.328125 214.6875 C 520.652344 226.835938 518.597656 242.085938 523.164062 255.757812 C 523.316406 256.21875 519.957031 277.488281 517.457031 289.714844 L 532.707031 290.207031 C 541.3125 290.484375 548.917969 295.9375 551.851562 304.023438 C 553.367188 308.207031 555.164062 312.292969 557.226562 316.253906 C 558.507812 318.722656 562.429688 316.882812 561.140625 314.40625 C 555.710938 303.980469 552.234375 292.753906 550.804688 281.089844 Z M 728.410156 184.429688 C 700.542969 169.335938 674.210938 147.445312 663.699219 116.585938 C 663.445312 115.84375 662.628906 115.480469 661.925781 115.355469 C 649.953125 113.21875 638.160156 117.578125 627.429688 122.503906 C 609.445312 130.761719 592.40625 141.640625 579.039062 156.371094 C 566.039062 170.695312 556.910156 188.835938 555.179688 208.242188 C 554.964844 210.660156 558.578125 211.511719 559.367188 209.183594 C 560.976562 204.421875 572.484375 178.140625 595.964844 157.296875 C 614.367188 140.957031 644.835938 128.582031 652.203125 128.363281 C 653.601562 133.300781 658.507812 158.816406 678.914062 187.511719 C 703.425781 221.992188 724.167969 244.773438 730.195312 234.273438 C 734 227.660156 747.3125 202.75 750.199219 195.6875 C 751.25 195.472656 734.941406 187.964844 728.410156 184.429688 Z M 707.132812 270.867188 C 705.960938 267.972656 704.953125 265.003906 704.109375 261.992188 C 704.109375 261.992188 704.640625 268.996094 704.480469 274.324219 C 704.3125 279.648438 703.453125 283.296875 703.328125 283.46875 C 701.152344 286.386719 697.039062 286.496094 693.761719 285.804688 C 690.378906 285.089844 686.722656 283.246094 683.53125 285.644531 C 680.285156 288.085938 681.242188 292.34375 683.703125 294.976562 C 686.371094 297.84375 689.953125 299.503906 693.765625 300.183594 C 694.6875 300.347656 695.335938 299.972656 695.695312 299.382812 C 705.390625 295.042969 711.035156 283.644531 708.464844 273.304688 C 708.285156 272.578125 707.269531 271.210938 707.132812 270.867188 Z M 664.65625 344.800781 C 660.527344 343.902344 656.578125 342.316406 652.953125 340.160156 C 650.566406 338.738281 648.054688 342.265625 650.449219 343.691406 C 653.390625 345.441406 656.445312 346.820312 659.640625 347.859375 C 657.519531 350.105469 655.835938 352.679688 654.71875 355.613281 C 653.726562 358.203125 657.640625 360.066406 658.632812 357.460938 C 659.738281 354.570312 661.40625 351.941406 663.714844 349.859375 C 663.960938 349.640625 664.160156 349.386719 664.3125 349.117188 C 667 349.664062 667.328125 345.382812 664.65625 344.800781 Z M 547.589844 265.429688 C 549.355469 267.589844 552.671875 264.808594 550.90625 262.648438 C 543.929688 254.125 535.792969 243.875 536.179688 232.210938 C 536.320312 228.007812 539 221.835938 544.082031 225.285156 C 545.148438 226.011719 546.054688 226.9375 546.820312 227.996094 C 544.71875 226.972656 542.652344 230.195312 544.726562 231.78125 C 546.160156 232.878906 547.226562 234.328125 547.847656 235.992188 C 545.3125 235.484375 542.507812 236.550781 541.398438 239.550781 C 539.320312 245.152344 545.03125 251.910156 549.238281 254.847656 C 551.285156 256.277344 553.671875 253.589844 552.148438 251.691406 C 550.871094 250.101562 549.273438 248.273438 549.109375 246.152344 C 549.0625 245.503906 549.59375 243.929688 550.417969 243.425781 C 550.660156 243.414062 550.902344 243.371094 551.128906 243.289062 C 551.230469 243.3125 551.335938 243.347656 551.4375 243.40625 C 553.539062 244.589844 555.71875 242.070312 554.644531 240.496094 C 554.628906 233.78125 552.402344 226.089844 546.84375 221.949219 C 541.371094 217.871094 534.941406 220.683594 532.796875 226.777344 C 530.519531 233.265625 532.445312 240.867188 535.171875 246.90625 C 538.242188 253.707031 542.894531 259.691406 547.589844 265.429688 Z M 413.5 541.796875 C 413.476562 541.675781 413.453125 541.550781 413.429688 541.425781 C 412.875 538.699219 408.613281 539.472656 409.167969 542.210938 C 409.890625 545.757812 407.828125 568.566406 405.363281 571.824219 C 398.621094 580.714844 388.203125 573.660156 379.460938 573.121094 C 377.605469 573.007812 376.386719 575.203125 377.613281 576.671875 C 383.261719 583.414062 389.402344 589.722656 395.992188 595.554688 C 400.625 599.652344 406.613281 605.824219 413.425781 605.0625 C 420.476562 604.273438 421.074219 596.667969 420.609375 591.117188 C 419.523438 578.238281 414.644531 541.800781 413.5 541.796875 Z M 472.316406 111.542969 C 469.664062 118.917969 466.917969 126.265625 463.875 133.492188 C 456.875 150.109375 449.609375 166.707031 440.054688 182.046875 C 436.097656 188.40625 430.949219 193.6875 425.832031 199.097656 C 424.113281 200.917969 422.363281 202.777344 421.128906 204.972656 C 420.160156 206.707031 419.6875 208.585938 420.125 210.460938 C 420.789062 213.300781 422.554688 215.753906 424.429688 217.933594 C 426.910156 220.820312 429.789062 223.292969 432.667969 225.761719 C 435.574219 228.257812 438.527344 230.699219 441.464844 233.164062 L 475.507812 235.949219 C 475.507812 235.949219 477.253906 237.738281 480.027344 240.578125 C 478.957031 232.472656 478.253906 224.308594 477.902344 216.15625 C 477.742188 212.425781 477.59375 208.644531 477.890625 204.917969 C 478.433594 198.179688 479.410156 191.4375 480.515625 184.765625 C 482.726562 171.410156 485.917969 158.207031 490.210938 145.363281 C 494.320312 133.078125 499.425781 121.101562 505.625 109.726562 C 511.59375 98.769531 518.59375 88.378906 526.597656 78.804688 C 534.410156 69.460938 543.199219 60.953125 552.839844 53.503906 C 562.664062 45.914062 573.316406 39.445312 584.605469 34.273438 C 588.015625 32.710938 591.480469 31.265625 594.988281 29.933594 C 564.691406 32.644531 536.050781 47.835938 511.875 69.324219 C 506.1875 74.382812 492.921875 94.183594 472.316406 111.542969 Z M 422.738281 602.535156 C 422.089844 601.882812 422.050781 600.703125 422.738281 600.175781 L 422.738281 602.535156 " fill-opacity="1" fill-rule="nonzero"/><path fill="#d69264" d="M 358.058594 549.765625 C 358.058594 549.765625 338.230469 465.761719 354.210938 448.875 C 371.914062 430.164062 384.453125 447.460938 384.019531 466.171875 C 383.6875 480.707031 372.480469 569.945312 372.480469 569.945312 L 358.058594 549.765625 " fill-opacity="1" fill-rule="nonzero"/><path fill="#f5f6f5" d="M 330.8125 459.765625 C 330.8125 459.765625 290.425781 462.328125 266.707031 476.417969 C 242.984375 490.511719 220.546875 511.652344 220.546875 511.652344 L 164.136719 621.195312 L 164.136719 693.582031 L 190.417969 719.847656 L 209.007812 733.300781 L 220.546875 741.625 L 205.164062 646.175781 C 205.164062 646.175781 206.097656 605.417969 221.191406 577.632812 C 230.226562 561 256.128906 551.371094 257.089844 551.371094 C 259.65625 551.371094 280.167969 553.933594 280.167969 553.933594 L 300.683594 560.335938 L 324.402344 563.542969 L 361.582031 561.773438 L 361.582031 459.765625 Z M 552.398438 727.289062 C 535.078125 740.273438 512.902344 753.863281 486.082031 764.28125 C 470.902344 770.175781 443.070312 776.671875 429.59375 779.664062 C 428.101562 779.992188 425.085938 739.421875 422.542969 724.664062 C 418.664062 702.140625 407.257812 668.464844 407.257812 668.464844 C 407.257812 668.464844 463.75 649.03125 474.652344 647.605469 C 509.988281 642.972656 628.191406 631.8125 633.074219 631.445312 C 624.421875 664.113281 578.753906 707.523438 552.398438 727.289062 " fill-opacity="1" fill-rule="nonzero"/><path fill="#ccccc9" d="M 287.210938 438.5625 C 286.597656 440.691406 286.835938 443.160156 288.308594 445.972656 C 287.355469 443.652344 286.988281 441.132812 287.210938 438.5625 " fill-opacity="1" fill-rule="nonzero"/><path fill="#ccccc9" d="M 360.941406 547.484375 L 360.941406 561.128906 L 323.761719 562.902344 L 300.042969 559.695312 L 279.527344 553.289062 C 279.527344 553.289062 259.011719 550.730469 256.449219 550.730469 C 255.488281 550.730469 229.585938 560.359375 220.546875 576.996094 C 205.457031 604.777344 204.523438 645.535156 204.523438 645.535156 L 219.90625 740.984375 L 208.367188 732.65625 L 189.777344 719.203125 L 163.496094 692.941406 L 163.496094 620.550781 L 219.90625 511.011719 C 219.90625 511.011719 242.34375 489.871094 266.0625 475.777344 C 266.59375 475.464844 267.128906 475.160156 267.671875 474.855469 C 264.476562 482.339844 263.527344 490.730469 264.65625 498.796875 C 266.222656 509.949219 272.0625 520.390625 280.8125 527.496094 C 287.03125 532.550781 294.539062 535.984375 301.988281 538.8125 C 310.339844 541.984375 319.035156 544.222656 327.824219 545.78125 C 332.042969 546.527344 336.328125 547.226562 340.601562 547.535156 C 345.121094 547.863281 349.660156 547.828125 354.1875 547.710938 C 356.4375 547.65625 358.6875 547.566406 360.941406 547.484375 Z M 632.113281 631.445312 C 628.570312 631.710938 571.179688 641.875 529.222656 651.621094 C 508.160156 656.515625 491.449219 663.078125 486.464844 664.660156 C 483.410156 665.628906 485.148438 670.300781 488.207031 669.332031 C 500.460938 665.4375 546.792969 661.078125 551.5625 663.757812 C 560.011719 668.5 561.320312 678.699219 558.554688 687.222656 C 554.980469 698.242188 546.445312 707.414062 537.398438 714.304688 C 527.878906 721.546875 516.976562 726.761719 506.007812 731.40625 C 500.472656 733.746094 494.941406 735.804688 489.238281 737.671875 C 474.351562 742.539062 459.277344 747.027344 444 750.484375 C 438.101562 751.816406 432.070312 753.117188 426.015625 753.601562 C 427.449219 767.308594 428.757812 779.882812 429.59375 779.699219 C 443.070312 776.710938 470.902344 770.210938 486.082031 764.316406 C 512.902344 753.898438 535.078125 740.3125 552.398438 727.324219 C 566.652344 716.632812 587.683594 697.042969 604.601562 677.207031 C 618.957031 660.371094 630.347656 643.355469 632.113281 631.445312 " fill-opacity="1" fill-rule="nonzero"/><path fill="#e15660" d="M 400.929688 547.628906 C 401.039062 548.886719 400.011719 550.328125 398.664062 550.328125 L 377.507812 550.328125 C 376.15625 550.328125 374.933594 549.503906 374.808594 548.0625 C 374.699219 546.804688 375.726562 545.367188 377.074219 545.367188 L 398.226562 545.367188 C 399.582031 545.367188 400.800781 546.191406 400.929688 547.628906 Z M 404.777344 526.492188 C 404.886719 527.746094 403.855469 529.1875 402.507812 529.1875 L 380.390625 529.1875 C 379.039062 529.1875 377.816406 528.363281 377.691406 526.921875 C 377.582031 525.667969 378.609375 524.226562 379.957031 524.226562 L 402.074219 524.226562 C 403.425781 524.226562 404.648438 525.050781 404.777344 526.492188 Z M 437.125 507.089844 L 377.507812 507.089844 C 376.15625 507.089844 374.933594 506.265625 374.808594 504.824219 C 374.699219 503.566406 375.726562 502.125 377.074219 502.125 L 436.691406 502.125 C 438.042969 502.125 439.265625 502.949219 439.390625 504.386719 C 439.503906 505.644531 438.472656 507.089844 437.125 507.089844 Z M 379.957031 479.0625 L 431.882812 479.0625 C 433.234375 479.0625 434.457031 479.886719 434.585938 481.328125 C 434.695312 482.585938 433.667969 484.027344 432.320312 484.027344 L 380.390625 484.027344 C 379.039062 484.027344 377.816406 483.203125 377.691406 481.761719 C 377.582031 480.503906 378.609375 479.0625 379.957031 479.0625 Z M 376.730469 458.703125 C 376.621094 457.445312 377.644531 456 378.996094 456 L 407.84375 456 C 409.195312 456 410.417969 456.828125 410.542969 458.265625 C 410.65625 459.523438 409.628906 460.96875 408.277344 460.96875 L 379.429688 460.96875 C 378.078125 460.96875 376.855469 460.140625 376.730469 458.703125 Z M 724.195312 273.140625 C 724.195312 276.039062 720.300781 275.339844 715.839844 275.339844 C 711.382812 275.339844 708.046875 276.039062 708.046875 273.140625 C 708.046875 270.25 711.660156 267.902344 716.117188 267.902344 C 720.578125 267.902344 724.195312 270.25 724.195312 273.140625 Z M 635.9375 264.753906 C 633.738281 267.945312 625.441406 262.863281 616.96875 259.117188 C 606.585938 254.527344 595.933594 250.664062 595.824219 250.582031 C 594.886719 244.902344 610.902344 242.652344 621.023438 245.921875 C 631.140625 249.191406 640.128906 258.648438 635.9375 264.753906 Z M 673.121094 335.71875 L 669.78125 335.71875 C 668.648438 335.71875 667.5625 334.726562 667.617188 333.558594 C 667.667969 332.382812 668.566406 331.390625 669.78125 331.390625 L 673.121094 331.390625 C 674.253906 331.390625 675.339844 332.386719 675.289062 333.558594 C 675.234375 334.730469 674.335938 335.71875 673.121094 335.71875 Z M 673.277344 302.035156 C 670.390625 301.171875 637.429688 310.953125 636.679688 312.867188 C 636.410156 313.542969 644.203125 325.785156 647.121094 330.28125 L 660.316406 330.28125 C 663.101562 330.28125 663.105469 334.609375 660.316406 334.609375 L 650.523438 334.609375 C 659.699219 343.859375 673.460938 342.984375 676.035156 341.863281 C 684.242188 338.300781 683.097656 325.011719 683.097656 325.011719 C 684.296875 323.769531 692.859375 316.441406 692.746094 313.324219 C 692.539062 307.492188 678.605469 303.625 673.277344 302.035156 " fill-opacity="1" fill-rule="nonzero"/><g clip-path="url(#f5d74aeefb)"><path fill="#43312b" d="M 675.617188 324.328125 C 661.121094 323.167969 646.917969 319.175781 633.921875 312.667969 C 633.773438 312.816406 633.625 312.960938 633.484375 313.113281 C 632.65625 313.941406 631.390625 314.183594 630.429688 313.378906 C 629.589844 312.671875 629.339844 311.160156 630.164062 310.328125 C 631.753906 308.738281 633.335938 307.140625 634.925781 305.550781 C 635.753906 304.71875 637.015625 304.480469 637.976562 305.285156 C 638.816406 305.988281 639.066406 307.503906 638.242188 308.332031 C 637.875 308.699219 637.507812 309.066406 637.144531 309.433594 C 649.457031 315.382812 662.75 318.976562 676.398438 320.070312 C 679.175781 320.292969 678.371094 324.546875 675.617188 324.328125 Z M 617.183594 176.882812 C 621.601562 174.699219 626.960938 172.46875 630.402344 172.234375 C 638.617188 171.671875 647.507812 171.664062 655.003906 171.785156 C 664.179688 171.929688 671.265625 172.257812 672.441406 171.980469 C 675.160156 171.34375 667.644531 179.699219 664.449219 179.550781 C 664.304688 179.570312 647.046875 178 631.042969 178.453125 C 622.835938 178.679688 614.957031 179.445312 609.886719 181.21875 C 608.507812 181.703125 612.261719 179.320312 617.183594 176.882812 Z M 756.855469 234.90625 C 756.832031 235.050781 756.8125 235.191406 756.796875 235.320312 C 755.082031 232.617188 752.808594 230.164062 750.027344 228.089844 C 749.921875 221.386719 747.082031 214.382812 743.535156 208.839844 C 738.277344 200.628906 730.019531 194.949219 721.984375 189.726562 C 717.191406 186.609375 740.996094 197.9375 747.972656 204.867188 C 758.207031 215.035156 757.988281 227.742188 756.855469 234.90625 Z M 737.644531 222.496094 C 735.167969 221.917969 732.707031 221.59375 730.300781 221.503906 C 728.640625 217.902344 726.492188 214.179688 723.714844 210.523438 C 717.640625 202.523438 710.539062 195.425781 703.105469 188.765625 C 695.960938 182.363281 677.507812 159.066406 678.175781 159.769531 C 691.429688 173.769531 703.929688 186.21875 712.738281 191.933594 C 716.707031 194.503906 733.734375 205.625 741.132812 216.550781 C 743.164062 219.550781 744.53125 222.527344 745.453125 225.285156 C 743.097656 224.105469 740.488281 223.152344 737.644531 222.496094 Z M 709.582031 316.492188 C 699.671875 328.855469 689.546875 341.046875 679.527344 353.3125 C 674.984375 358.875 670.597656 364.621094 665.695312 369.871094 C 661.417969 374.449219 656.449219 378.714844 650.363281 380.605469 C 643.183594 382.835938 635.597656 380.886719 628.863281 378.125 C 622.121094 375.359375 582.503906 349.765625 579.089844 347.65625 C 576.199219 345.863281 577.195312 352.304688 577.867188 351.996094 C 578.167969 352.289062 594.222656 363.386719 604.875 370.308594 C 598.953125 389.203125 594.085938 408.421875 590.335938 427.867188 C 588.460938 437.613281 586.859375 447.414062 585.542969 457.246094 C 584.878906 462.167969 584.292969 467.09375 583.773438 472.03125 C 583.375 475.824219 582.765625 479.730469 583.433594 483.53125 C 584.007812 486.800781 585.429688 490.25 588.671875 491.667969 C 590.53125 492.484375 592.539062 492.347656 594.457031 491.839844 C 596.265625 491.359375 605.109375 487.398438 602.46875 486.523438 C 598.75 485.292969 596.171875 487.25 592.621094 487.855469 C 589.320312 488.417969 588.0625 485.363281 587.660156 482.613281 C 587.113281 478.824219 587.800781 474.9375 588.207031 471.167969 C 588.714844 466.507812 589.28125 461.855469 589.910156 457.210938 C 590.191406 455.152344 590.488281 453.097656 590.792969 451.042969 C 610.378906 464.5625 657.757812 492.453125 667.515625 498.066406 C 666.820312 535.039062 659.179688 570.339844 645.84375 602.726562 C 645.507812 603.539062 640.457031 615.242188 633.027344 629.285156 C 632.867188 629.269531 632.695312 629.265625 632.511719 629.28125 C 614.339844 630.753906 553.074219 636.847656 549.320312 637.058594 C 527.132812 638.292969 505.042969 640.359375 483.210938 644.605469 C 473.578125 646.484375 464.019531 648.707031 454.550781 651.277344 C 454.550781 651.277344 422.324219 661.753906 417.332031 663.414062 C 417.265625 663.191406 417.160156 662.96875 417 662.742188 C 401.453125 641.039062 388.003906 617.863281 376.949219 593.566406 C 374.820312 588.882812 372.78125 584.164062 370.832031 579.40625 C 372.246094 578.839844 372.832031 576.367188 371.046875 575.304688 C 370.515625 574.988281 363.457031 569.640625 356.945312 564.429688 C 363.023438 563.609375 367.558594 562.859375 367.675781 562.800781 C 367.855469 562.828125 370.480469 561.472656 370.480469 560.121094 C 370.480469 560.121094 370.355469 456.878906 370.15625 456.5625 L 354.859375 456.5625 C 354.742188 456.667969 354.628906 456.789062 354.527344 456.917969 C 336.679688 456.242188 318.824219 458.367188 301.601562 463.09375 C 301.875 460.480469 300.964844 457.789062 299.261719 455.710938 C 296.574219 452.425781 292.835938 450.96875 288.644531 450.96875 C 283.933594 450.96875 279.394531 452.914062 275.105469 454.648438 C 270.699219 456.425781 266.332031 458.289062 261.972656 460.175781 C 260.832031 460.671875 259.691406 461.164062 258.550781 461.660156 C 247.941406 448.210938 223.644531 417.316406 212.359375 402.203125 C 197.371094 382.128906 183.015625 361.527344 170.347656 339.894531 C 163.195312 327.683594 156.609375 315.125 150.804688 302.230469 L 150.804688 301.8125 C 150.765625 301.859375 150.722656 301.910156 150.683594 301.957031 C 146.503906 292.652344 142.726562 283.164062 139.433594 273.5 C 141.054688 275.519531 142.785156 277.449219 144.585938 279.3125 C 146.523438 281.3125 149.292969 277.984375 147.371094 275.996094 C 132.667969 260.800781 125.144531 239.554688 125.558594 218.554688 C 125.976562 197.160156 135.457031 177.503906 150.828125 162.804688 C 187.824219 127.421875 242.617188 127.742188 290.164062 133.3125 C 313.726562 136.070312 337.246094 139.914062 360.933594 141.285156 C 358.390625 144.132812 356.613281 147.632812 355.75 151.566406 C 354.871094 155.558594 354.765625 159.640625 354.632812 163.707031 C 354.484375 168.289062 354.335938 172.871094 354.183594 177.453125 C 353.902344 186.113281 353.867188 195.203125 350.265625 203.265625 C 347.414062 209.660156 357.925781 191.816406 358.285156 183.8125 C 358.675781 175.125 358.5625 166.382812 359.238281 157.714844 C 359.539062 153.828125 360.191406 149.78125 362.3125 146.429688 C 363.542969 144.484375 365.171875 142.871094 367.039062 141.582031 C 369.066406 141.664062 371.101562 141.71875 373.132812 141.757812 C 381.457031 143.246094 393.121094 145.101562 404.207031 146.097656 C 403.269531 146.761719 402.339844 147.433594 401.417969 148.113281 C 397.484375 151.015625 393.679688 154.089844 390.015625 157.320312 C 389.003906 158.207031 388.582031 159.613281 389.421875 160.792969 C 390.136719 161.804688 391.882812 162.28125 392.898438 161.386719 C 400.332031 154.84375 408.332031 148.949219 416.789062 143.808594 C 438.234375 137.132812 478.105469 118.378906 488.933594 112.242188 C 489.621094 111.851562 490.378906 112.613281 489.996094 113.308594 C 486.515625 119.648438 483.789062 126.195312 481.652344 132.613281 C 477.214844 135.257812 473.015625 138.257812 469.085938 141.617188 C 462.070312 146.195312 457.910156 153.699219 454.652344 161.339844 C 450.960938 170.011719 447.820312 179.765625 439.824219 185.503906 C 437.5625 187.128906 440.058594 190.667969 442.328125 189.035156 C 450.023438 183.515625 453.824219 174.714844 457.308594 166.234375 C 459.65625 160.515625 462.265625 154.199219 466.457031 149.441406 C 466.484375 149.441406 466.511719 149.449219 466.539062 149.449219 C 469.382812 149.425781 472.207031 149.25 475.011719 148.9375 C 473.117188 151.363281 466.492188 170.402344 466.773438 194.984375 C 466.910156 206.777344 468.636719 219.851562 473.242188 232.976562 C 469.113281 224.878906 466.089844 216.230469 464.367188 207.332031 C 462.882812 199.671875 462.3125 191.808594 462.820312 184.019531 C 462.890625 182.929688 462.359375 181.90625 461.207031 181.679688 C 460.234375 181.492188 458.9375 182.214844 458.863281 183.292969 C 457.722656 200.847656 461.542969 218.410156 469.332031 234.035156 C 469.332031 234.035156 441.25 232.492188 440.390625 231.601562 C 435.980469 227.054688 431.316406 222.757812 426.40625 218.738281 C 424.25 216.972656 421.460938 220.28125 423.625 222.054688 C 432.425781 229.261719 440.410156 237.355469 447.488281 246.21875 C 450.574219 250.785156 453.9375 255.558594 455.582031 257.914062 C 459.425781 263.414062 462.769531 269.183594 464.726562 275.625 C 466.503906 281.484375 465.96875 286.6875 464.453125 290.988281 C 463.5 293.691406 461.972656 295.328125 460.324219 296.203125 C 458.457031 287.898438 453.316406 280.382812 446.914062 274.679688 C 443.167969 271.335938 439.050781 268.539062 434.769531 265.984375 C 434.167969 265.445312 433.558594 264.910156 432.933594 264.382812 C 427.394531 259.703125 409.648438 250.410156 397.601562 235.328125 C 391.199219 227.3125 386.945312 215.839844 384.875 209.785156 C 384.667969 208.078125 384.457031 206.375 384.25 204.667969 C 383.917969 201.910156 379.601562 202.273438 379.9375 205.042969 C 380.085938 206.285156 380.238281 207.53125 380.386719 208.773438 C 337.101562 207.480469 296.816406 227.40625 260.527344 249.011719 C 250.171875 255.171875 238.746094 262.070312 226.207031 261.132812 C 223.453125 260.925781 222.648438 265.179688 225.425781 265.390625 C 235.136719 266.117188 244.113281 262.867188 252.566406 258.484375 C 266.40625 279.296875 287.699219 293.121094 307.921875 307.082031 C 318.464844 314.355469 328.894531 321.839844 338.28125 330.582031 C 348.070312 339.699219 356.742188 349.984375 364.140625 361.125 C 369.390625 369.027344 373.960938 377.347656 377.820312 385.992188 L 377.820312 385.539062 C 380.578125 392.679688 382.347656 400.191406 383.058594 407.871094 C 383.316406 410.644531 387.632812 410.273438 387.375 407.496094 C 386.523438 398.3125 384.21875 389.363281 380.601562 380.949219 C 400.875 384.234375 420.15625 392.265625 436.757812 404.183594 C 438.992188 405.785156 446.578125 413.152344 452.152344 421.863281 C 455.671875 427.359375 464.984375 440.878906 472.527344 451.757812 L 475.304688 451.757812 C 467.382812 436.941406 458.660156 421.578125 458.726562 421.546875 C 463.675781 419.210938 469.867188 415.640625 472.003906 414.09375 C 480.101562 408.230469 483.308594 400.339844 484.539062 397.757812 C 488.65625 389.117188 492.5 380.347656 496.058594 371.464844 C 504.136719 351.304688 510.761719 330.566406 515.84375 309.449219 C 518.109375 300.054688 520.054688 290.589844 521.710938 281.070312 C 535.96875 284.667969 544.550781 281.378906 543.765625 280.828125 C 535.460938 275 530.636719 266.238281 526.332031 257.25 C 526.320312 257.230469 526.3125 257.210938 526.304688 257.1875 C 525.40625 254.859375 524.570312 252.5 523.859375 250.105469 C 523.839844 250.039062 523.828125 249.972656 523.824219 249.902344 C 523.734375 247.484375 523.695312 245.0625 523.695312 242.640625 C 524.011719 234.335938 525.03125 226.105469 527.40625 218.203125 C 527.421875 218.148438 527.445312 218.09375 527.476562 218.042969 C 528.007812 217.066406 528.558594 216.175781 529.136719 215.386719 C 534.886719 207.53125 543.015625 208.726562 555.511719 216.722656 C 555.949219 217.003906 556.539062 216.785156 556.683594 216.285156 C 556.910156 215.488281 557.1875 214.621094 557.5 213.699219 C 557.5 213.699219 602.6875 229.65625 603.816406 232.390625 C 608.328125 243.371094 620.042969 252.851562 635.246094 256.378906 C 654.25 260.792969 672.476562 254.460938 679.550781 241.976562 L 699.121094 246.507812 C 699.015625 254.394531 700.042969 262.421875 702.097656 270 C 702.234375 270.507812 703.480469 273.457031 703.582031 274.628906 C 704.382812 283.488281 696.785156 291.515625 687.269531 290.183594 C 684.511719 289.796875 683.722656 294.050781 686.488281 294.4375 C 692.90625 295.335938 699.574219 293.023438 703.773438 287.996094 C 707.355469 283.707031 708.671875 277.957031 707.679688 272.554688 C 707.46875 271.429688 706.382812 268.535156 706.113281 268.320312 C 704.910156 263.855469 703.976562 259.183594 703.519531 254.484375 C 707.488281 262.15625 715.710938 268.515625 726.148438 270.996094 C 726.21875 274.351562 726.28125 276.671875 726.289062 276.761719 C 727.597656 291.984375 718.664062 305.167969 709.582031 316.492188 Z M 667.578125 492.507812 C 667.578125 492.558594 667.574219 492.613281 667.574219 492.664062 C 642.691406 477.78125 604.632812 455.707031 591.523438 446.285156 C 593.890625 431.265625 596.898438 416.347656 600.5625 401.59375 C 602.972656 391.890625 605.671875 382.265625 608.632812 372.714844 C 610.441406 373.847656 611.917969 374.738281 612.886719 375.253906 C 623.144531 380.695312 635.28125 387.148438 647.207031 385.671875 C 660.34375 418.753906 667.578125 454.800781 667.578125 492.507812 Z M 625.382812 642.972656 C 623.574219 646.023438 561.699219 652.023438 561.699219 652.023438 C 560.351562 652.023438 559.324219 653.464844 559.433594 654.722656 C 559.558594 656.160156 560.78125 656.984375 562.132812 656.984375 L 619.613281 652.585938 C 610.496094 666.230469 598.335938 682.011719 594.203125 685.269531 C 552.574219 732.105469 496.0625 765.441406 432.152344 777.800781 C 429.566406 755.019531 426.5 732.292969 422.945312 709.640625 C 422.332031 705.738281 421.703125 701.839844 421.0625 697.945312 C 423.078125 700.527344 425.097656 703.109375 427.117188 705.6875 C 429.082031 708.207031 433.167969 705.34375 431.183594 702.808594 C 426.816406 697.222656 422.449219 691.632812 418.082031 686.042969 C 416.050781 683.449219 413.878906 680.914062 412.023438 678.1875 C 410.785156 676.371094 409.3125 673.46875 410.8125 671.363281 C 411.0625 671.015625 411.226562 670.628906 411.308594 670.238281 C 411.335938 670.226562 411.367188 670.21875 411.398438 670.210938 C 411.867188 670.472656 451.296875 657.023438 470.804688 651.726562 C 471.003906 651.671875 471.183594 651.597656 471.335938 651.507812 C 472.972656 651.136719 474.609375 650.769531 476.25 650.417969 C 497.828125 645.796875 519.683594 643.238281 541.691406 641.84375 C 548.75 641.390625 599.863281 636.929688 617.582031 635.488281 L 630.234375 634.460938 C 628.691406 637.269531 627.066406 640.128906 625.382812 642.972656 Z M 376.78125 783.089844 C 320.117188 783.089844 267.191406 766.804688 222.433594 738.683594 C 219.246094 717.925781 216.058594 697.167969 212.867188 676.40625 C 212.027344 670.917969 211.183594 665.433594 210.339844 659.945312 C 212.609375 659.859375 214.875 659.03125 216.8125 657.765625 C 224.109375 652.996094 226.539062 643.601562 229.921875 636.101562 C 233.464844 628.246094 237.839844 620.777344 243 613.875 C 244.441406 611.945312 245.941406 610.058594 247.496094 608.222656 C 248.988281 606.449219 250.660156 604.804688 252.066406 602.960938 C 253.503906 601.070312 254.527344 598.910156 254.390625 596.484375 C 254.292969 594.746094 253.582031 593.234375 252.394531 592.09375 C 252.945312 591.4375 253.492188 590.777344 254.035156 590.113281 C 257.054688 586.410156 259.988281 582.277344 260.835938 577.472656 C 261.554688 573.359375 260.726562 569.195312 258.140625 565.976562 C 261.988281 562.738281 265.835938 559.5 269.679688 556.265625 C 269.929688 556.054688 270.140625 555.8125 270.304688 555.550781 C 280.386719 557.285156 290.082031 560.691406 300.054688 562.917969 C 310.339844 565.210938 320.851562 566.402344 331.386719 566.589844 C 336.5 566.683594 343.875 566.019531 350.640625 565.222656 C 355.207031 569.292969 359.9375 573.164062 365.019531 576.570312 C 374.664062 600.804688 386.570312 624.144531 400.570312 646.160156 C 403.121094 650.179688 405.753906 654.144531 408.449219 658.070312 L 408.292969 658.070312 C 409.722656 660.460938 411.164062 662.839844 412.625 665.214844 C 412.152344 665.402344 411.671875 665.585938 411.199219 665.777344 C 411.125 665.804688 411.054688 665.835938 410.984375 665.871094 C 410.335938 666.050781 409.679688 666.222656 409.023438 666.386719 C 408.589844 666.492188 407.953125 667.097656 407.46875 667.695312 C 407.289062 667.820312 407.125 667.976562 406.996094 668.160156 C 402.171875 674.925781 408.414062 681.761719 412.488281 686.972656 L 414.804688 689.941406 C 414.769531 690.15625 414.761719 690.382812 414.796875 690.609375 C 418.671875 713.460938 422.054688 736.390625 424.9375 759.386719 C 425.746094 765.820312 426.511719 772.261719 427.238281 778.703125 C 410.847656 781.582031 393.988281 783.089844 376.78125 783.089844 Z M 168.835938 695.433594 C 169.0625 695.015625 169.183594 694.519531 169.183594 694.003906 L 169.183594 621.109375 C 170.082031 620.273438 170.960938 619.410156 171.816406 618.527344 C 181.484375 608.523438 187.832031 595.871094 192.566406 582.917969 C 195.402344 575.167969 197.734375 567.242188 200.054688 559.328125 C 200.078125 559.246094 200.09375 559.160156 200.109375 559.078125 C 201.460938 558.722656 202.792969 558.292969 204.050781 557.660156 C 207.332031 556.003906 210.277344 552.777344 210.324219 549 C 220.71875 548.074219 231.105469 547.03125 241.480469 545.867188 C 248.28125 545.097656 255.089844 544.316406 261.875 543.410156 C 266.503906 542.792969 271.34375 541.78125 275.292969 539.15625 C 279.664062 536.25 281.886719 531.226562 280.625 526.078125 C 279.320312 520.773438 274.761719 516.726562 269.710938 515.042969 C 263.695312 513.035156 257.234375 513.554688 251.003906 513.890625 C 244.261719 514.253906 237.523438 514.75 230.800781 515.375 C 228.097656 515.625 225.398438 515.898438 222.699219 516.191406 C 235.570312 502.324219 250.855469 490.71875 267.585938 481.882812 C 285.21875 472.566406 304.492188 466.246094 324.238281 463.429688 C 334.496094 461.96875 344.902344 461.417969 355.253906 461.894531 C 355.253906 461.894531 355.300781 559.769531 355.261719 560.125 C 337.839844 562.578125 320.050781 562.035156 302.804688 558.414062 C 292.4375 556.238281 282.410156 552.671875 271.980469 550.78125 C 262.242188 549.015625 252.449219 549.164062 242.890625 551.824219 C 232.714844 554.65625 223.402344 560.179688 215.957031 567.648438 C 215.664062 567.945312 215.488281 568.316406 215.414062 568.710938 C 215.121094 568.878906 214.832031 569.070312 214.550781 569.28125 C 212.574219 570.78125 211.507812 572.957031 210.351562 575.085938 C 208.167969 579.109375 203.847656 580.644531 200.207031 583.0625 C 196.511719 585.511719 192.976562 588.746094 191.269531 592.925781 C 189.777344 596.570312 189.84375 600.777344 191.660156 604.296875 C 192.476562 605.875 193.613281 607.21875 194.972656 608.210938 C 189.570312 612.417969 187.996094 620.371094 192.300781 626.265625 C 194.816406 629.710938 198.386719 631.316406 202.191406 631.625 C 198.804688 636.675781 197.574219 643.136719 198.917969 649.078125 C 199.78125 652.882812 201.742188 656.578125 205.164062 658.636719 C 205.152344 658.796875 205.15625 658.957031 205.179688 659.117188 C 208.378906 679.960938 211.582031 700.800781 214.78125 721.640625 C 215.46875 726.125 216.160156 730.605469 216.847656 735.085938 C 199.449219 723.59375 183.355469 710.289062 168.835938 695.433594 Z M 167.195312 512.863281 C 154.953125 524.804688 144.558594 538.460938 135.429688 552.886719 C 125.628906 568.371094 117.351562 584.75 109.585938 601.324219 C 109.152344 602.25 108.722656 603.183594 108.292969 604.109375 C 93.929688 569.730469 85.984375 532.03125 85.984375 492.507812 C 85.984375 423.800781 109.980469 360.597656 150.023438 310.800781 C 164.597656 341.402344 183.367188 370.054688 203.390625 397.363281 C 218.472656 417.933594 234.246094 438.015625 250.203125 457.914062 C 251.417969 459.425781 252.636719 460.925781 253.855469 462.433594 C 253.851562 462.472656 254.109375 462.808594 254.570312 463.390625 C 248.121094 466.199219 241.671875 469.019531 235.222656 471.832031 C 226.421875 475.667969 217.539062 479.367188 208.886719 483.53125 C 193.386719 490.992188 179.5 500.859375 167.195312 512.863281 Z M 393.074219 136.164062 C 394.410156 125.042969 397.585938 114.230469 402.417969 104.113281 C 405.28125 98.125 408.722656 92.429688 412.679688 87.117188 C 413.277344 86.308594 414.507812 87.144531 413.972656 87.996094 C 404.726562 102.773438 398.695312 119.503906 395.011719 136.601562 C 394.902344 137.089844 394.371094 137.351562 393.914062 137.144531 C 393.789062 137.085938 393.664062 137.03125 393.539062 136.972656 C 393.226562 136.835938 393.035156 136.507812 393.074219 136.164062 Z M 503.675781 273.71875 C 508.140625 276.214844 512.339844 278.066406 516.214844 279.414062 C 505.382812 290.191406 498.351562 304.605469 496.621094 319.824219 C 496.082031 324.527344 496.042969 329.28125 496.519531 333.992188 C 496.78125 336.5625 500.785156 336.21875 500.523438 333.640625 C 498.738281 315.996094 504.78125 297.839844 516.652344 284.710938 C 510.613281 317.503906 500.9375 349.585938 487.75 380.21875 C 484.382812 388.039062 480.789062 395.753906 476.984375 403.363281 C 476.957031 403.398438 476.925781 403.433594 476.902344 403.472656 C 472.777344 409.277344 464.875 414.464844 457.492188 416.445312 C 457.402344 416.300781 457.296875 416.164062 457.167969 416.027344 C 440.738281 399.140625 419.914062 386.796875 397.292969 380.238281 C 391.101562 378.441406 384.792969 377.121094 378.410156 376.242188 C 376.894531 373.226562 375.210938 370.289062 373.351562 367.453125 C 373.1875 367.199219 372.996094 367.007812 372.789062 366.863281 C 365.445312 354.375 356.574219 342.789062 346.390625 332.445312 C 328.128906 313.898438 305.371094 301.234375 284.894531 285.453125 C 274.082031 277.117188 264.042969 267.765625 256.390625 256.414062 C 265.726562 251.199219 274.796875 245.535156 284.230469 240.488281 C 303.671875 230.085938 324.25 221.074219 345.882812 216.40625 C 356.980469 214.007812 368.3125 212.816406 379.664062 213.058594 C 378.625 219.773438 378.144531 226.5625 378.273438 233.363281 C 378.558594 248.347656 381.546875 263.214844 387.203125 277.105469 C 392.585938 290.320312 403.472656 303.953125 400.503906 319.003906 C 399.964844 321.734375 404.285156 322.085938 404.820312 319.382812 C 406.433594 311.195312 404.082031 303.113281 400.785156 295.652344 C 397.738281 288.765625 393.964844 282.234375 391.121094 275.253906 C 388.84375 269.671875 387.035156 263.910156 385.667969 258.042969 C 391.605469 274.019531 400.164062 288.945312 408.617188 303.746094 C 413.921875 313.035156 419.574219 322.328125 423.589844 332.265625 C 427.429688 341.777344 429.585938 352.527344 424.800781 362.097656 C 423.8125 364.070312 443.328125 358.355469 458.152344 337.566406 C 467.457031 324.53125 472.5 306.414062 474.902344 290.589844 C 476.0625 282.9375 476.289062 275.15625 475.609375 267.449219 C 475.835938 268.171875 476.054688 268.902344 476.257812 269.636719 C 480.589844 285.210938 480.507812 301.847656 475.59375 317.28125 C 470.800781 332.335938 461.867188 345.886719 449.84375 356.152344 C 447.722656 357.964844 450.503906 361.28125 452.628906 359.46875 C 459.773438 353.363281 465.957031 346.140625 470.832031 338.101562 C 479.5625 323.707031 484.230469 306.941406 483.703125 290.082031 C 483.257812 275.796875 479.417969 261.84375 472.542969 249.398438 C 471.324219 247.199219 467.5625 241.125 465.882812 239 L 471.976562 239 C 476.523438 247.003906 482.140625 254.417969 488.691406 260.945312 C 492.855469 265.835938 497.867188 270.476562 503.675781 273.71875 Z M 572.46875 178.210938 C 572.246094 178.066406 572 177.988281 571.734375 177.960938 C 576.425781 175.789062 580.925781 173.179688 585.15625 170.152344 C 587.429688 168.53125 578.972656 167.558594 579.59375 166.882812 C 581.964844 164.28125 584.464844 161.792969 587.089844 159.425781 C 587.960938 158.640625 617.351562 130.121094 656.46875 123.574219 C 656.710938 123.53125 655.488281 128.546875 658.441406 138.816406 C 660.800781 147.007812 665.8125 158.53125 676.351562 173.496094 C 687.296875 189.039062 700.773438 202.539062 714.726562 215.367188 C 717.289062 217.730469 719.5 220.011719 721.425781 222.234375 C 715.75 223.433594 710.765625 226.003906 707.125 229.632812 C 708.261719 227.257812 709.671875 224.980469 711.402344 222.832031 C 712.511719 221.453125 707.886719 222.488281 704.023438 227.777344 C 703.183594 228.929688 702.378906 230.277344 701.679688 231.847656 L 682.460938 227.507812 C 680.839844 213.710938 667.554688 200.75 649.179688 196.480469 C 632.894531 192.695312 617.191406 196.800781 608.570312 205.902344 C 607.339844 207.199219 562.917969 200.523438 562.917969 200.523438 C 566.921875 191.8125 571.421875 183.503906 572.816406 182.570312 C 577.792969 182.511719 572.542969 178.242188 572.46875 178.210938 Z M 785.902344 139.171875 C 777.792969 120.179688 761.898438 104.492188 742.378906 97.566406 C 742.1875 97.496094 742.03125 97.355469 741.945312 97.171875 C 736.5 85.910156 709.066406 40.414062 652.484375 27.910156 C 623.945312 21.601562 587.996094 23.6875 543.71875 42.796875 C 543.488281 42.894531 543.230469 42.878906 543.015625 42.75 C 539.164062 40.441406 526.683594 36.183594 522.667969 36.339844 C 517.003906 36.558594 511.757812 39.003906 507.359375 42.46875 C 507.199219 42.59375 506.996094 42.65625 506.792969 42.628906 C 501.789062 42.046875 496.746094 41.828125 491.707031 41.960938 C 483.335938 41.765625 475.011719 43.042969 467.019531 45.523438 C 446.617188 50.953125 428.121094 62.289062 414.238281 78.269531 C 400.59375 93.980469 391.707031 113.6875 388.949219 134.292969 C 388.882812 134.765625 388.417969 135.082031 387.953125 134.953125 C 381.707031 133.210938 375.078125 133.09375 368.933594 135.636719 C 367.832031 136.089844 366.785156 136.625 365.804688 137.226562 C 342.691406 136.230469 319.734375 132.609375 296.785156 129.757812 C 269.179688 126.335938 240.929688 123.984375 213.328125 128.695312 C 190.738281 132.550781 168.667969 141.421875 151.261719 156.59375 C 134.714844 171.011719 123.523438 190.617188 121.578125 212.648438 C 120.042969 230.039062 123.765625 247.980469 132.417969 263.171875 C 132.085938 263.660156 131.949219 264.296875 132.164062 265.015625 C 136.367188 278.953125 141.597656 292.484375 147.621094 305.652344 C 141.921875 312.613281 136.539062 319.824219 131.515625 327.253906 C 120.832031 343.054688 111.660156 359.945312 104.246094 377.460938 C 88.820312 413.898438 81 452.609375 81 492.507812 C 81 532.40625 88.820312 571.113281 104.246094 607.554688 C 111.660156 625.070312 120.832031 641.960938 131.515625 657.761719 C 142.097656 673.410156 154.25 688.125 167.632812 701.5 C 181.015625 714.875 195.742188 727.019531 211.40625 737.589844 C 227.21875 748.265625 244.121094 757.433594 261.648438 764.84375 C 298.117188 780.253906 336.851562 788.070312 376.78125 788.070312 C 416.710938 788.070312 455.445312 780.253906 491.914062 764.84375 C 509.441406 757.433594 526.34375 748.265625 542.15625 737.589844 C 557.820312 727.019531 572.546875 714.875 585.929688 701.5 C 590.128906 697.308594 594.207031 692.976562 598.152344 688.53125 L 598.269531 688.53125 L 598.269531 688.394531 C 606.855469 678.707031 614.820312 668.449219 622.046875 657.761719 C 632.730469 641.960938 641.902344 625.070312 649.316406 607.554688 C 664.742188 571.113281 672.5625 532.40625 672.5625 492.507812 C 672.5625 455.183594 665.707031 418.910156 652.199219 384.554688 C 652.609375 384.421875 653.019531 384.273438 653.425781 384.117188 C 665.816406 379.355469 673.976562 366.953125 682.027344 357.09375 C 692.074219 344.792969 702.191406 332.546875 712.164062 320.1875 C 715.25 316.363281 721.703125 307.175781 725.851562 298.421875 C 729.328125 291.066406 730.847656 284.371094 730.703125 277.910156 C 730.746094 277.824219 730.5 275.328125 730.113281 271.738281 C 745.226562 273.761719 757.125 266.207031 760.007812 253.8125 C 761.289062 248.304688 760.585938 242.699219 758.152344 237.730469 C 758.554688 237.558594 759.007812 237.199219 759.472656 236.691406 C 770.914062 224.144531 797.253906 186.707031 779.753906 141.378906 C 775.011719 129.101562 767.992188 119.890625 761.351562 113.300781 C 763.273438 114.882812 765.113281 116.566406 766.855469 118.347656 C 783.078125 134.949219 788.738281 158.285156 788.128906 181.261719 C 787.886719 190.253906 785.234375 199.515625 782.101562 207.496094 C 777.109375 220.214844 770.894531 229.6875 771.28125 229.6875 C 771.28125 229.6875 779.015625 223.378906 785.125 211.15625 C 796.144531 189.089844 795.667969 162.042969 785.902344 139.171875 " fill-opacity="1" fill-rule="nonzero"/></g><path fill="#6b5b4f" d="M 190.859375 573.46875 C 189.1875 580.0625 186.894531 586.488281 183.921875 592.605469 C 178.253906 604.265625 169.980469 614.625 159.242188 621.988281 C 153.324219 626.046875 146.777344 629.058594 139.816406 630.828125 C 138.511719 631.164062 137.917969 632.871094 138.351562 634.035156 C 138.859375 635.40625 140.25 635.832031 141.558594 635.5 C 165.5625 629.394531 183.25 609.386719 191.828125 586.863281 C 193.128906 583.449219 200.460938 559.121094 200.355469 557.9375 C 200.324219 557.585938 191.320312 571.664062 190.859375 573.46875 Z M 218.945312 622.058594 C 214.269531 624.695312 208.089844 627.15625 202.71875 625.25 C 201.453125 624.796875 200.015625 625.136719 199.402344 626.4375 C 198.867188 627.558594 199.3125 629.300781 200.589844 629.753906 C 207.1875 632.097656 214.109375 630.207031 220.097656 627.058594 C 226.308594 623.800781 232.046875 619.589844 237.882812 615.71875 C 240.558594 613.945312 224.488281 618.929688 218.945312 622.058594 Z M 220.710938 600.480469 C 214.308594 603.59375 205.34375 608.320312 198.472656 603.675781 C 197.359375 602.925781 195.890625 602.878906 194.960938 603.984375 C 194.164062 604.933594 194.148438 606.734375 195.269531 607.496094 C 203.339844 612.949219 212.761719 609.832031 220.761719 605.96875 C 229.761719 601.625 238.738281 597.234375 247.726562 592.863281 C 248.9375 592.277344 249.695312 591.007812 249.195312 589.660156 C 248.761719 588.492188 229.136719 596.386719 220.710938 600.480469 Z M 193.171875 519.84375 C 191.363281 520.582031 189.839844 521.820312 188.074219 522.625 C 186.308594 523.429688 184.394531 523.085938 182.519531 523.304688 C 178.363281 523.785156 174.949219 526.3125 171.738281 528.792969 C 168.382812 531.390625 165.082031 534.058594 161.84375 536.796875 C 154.4375 543.0625 147.34375 549.699219 140.589844 556.660156 C 139.652344 557.628906 139.917969 559.347656 140.894531 560.171875 C 141.992188 561.085938 143.46875 560.832031 144.410156 559.863281 C 150.171875 553.925781 156.179688 548.230469 162.441406 542.820312 C 165.648438 540.046875 168.921875 537.34375 172.25 534.714844 C 175.140625 532.429688 178.175781 529.558594 181.785156 528.503906 C 183.605469 527.972656 185.535156 528.324219 187.386719 528.003906 C 189.433594 527.652344 191.140625 526.652344 192.886719 525.582031 C 196.242188 523.527344 200 523.3125 203.832031 522.992188 C 212.8125 522.234375 249.878906 513.734375 249.878906 513.734375 C 249.878906 513.734375 214.507812 517.089844 205.625 517.839844 C 201.488281 518.191406 197.066406 518.25 193.171875 519.84375 Z M 648.628906 206.617188 C 632.582031 202.941406 617.488281 209.046875 614.917969 220.253906 C 612.347656 231.460938 623.269531 243.523438 639.320312 247.203125 C 655.367188 250.878906 670.460938 244.773438 673.03125 233.566406 C 675.597656 222.355469 664.679688 210.292969 648.628906 206.617188 Z M 732.910156 230.453125 C 721.6875 228.59375 711.421875 234.164062 709.976562 242.890625 C 708.53125 251.617188 716.457031 260.195312 727.675781 262.050781 C 738.898438 263.90625 749.167969 258.335938 750.613281 249.609375 C 752.054688 240.886719 744.132812 232.308594 732.910156 230.453125 Z M 596.675781 128.722656 C 586.863281 127.660156 577.304688 125.238281 568.230469 121.554688 C 588.550781 124.804688 609.476562 124.230469 629.589844 119.800781 C 636.894531 118.191406 644.066406 116.105469 651.085938 113.527344 C 653.699219 112.566406 652.199219 108.503906 649.578125 109.46875 C 618.589844 120.851562 584.453125 122.34375 552.570312 113.792969 C 550.023438 113.109375 549.316406 116.707031 551.253906 117.878906 C 560.601562 123.542969 570.761719 127.757812 581.339844 130.390625 C 565.542969 130.65625 531.660156 118.613281 533.941406 120.214844 C 551.960938 132.84375 574.929688 137.671875 596.476562 133.007812 C 598.628906 132.542969 599.34375 129.015625 596.675781 128.722656 Z M 766.363281 148.351562 C 767.886719 150.082031 771.109375 148.800781 770.15625 146.34375 C 763.933594 130.265625 753.195312 116.136719 739.3125 105.890625 C 737.074219 104.242188 734.28125 107.546875 736.527344 109.207031 C 746.707031 116.71875 755.113281 126.324219 761.179688 137.324219 C 750.203125 128.050781 736.929688 121.683594 722.667969 119.070312 C 720.679688 118.707031 719.726562 120.835938 720.390625 122.230469 C 720.523438 122.746094 720.902344 123.199219 721.601562 123.4375 C 742.542969 130.640625 770.144531 169.636719 768.921875 167.125 C 762.207031 153.277344 753.554688 139.449219 741.589844 129.722656 C 750.964844 134.203125 759.445312 140.519531 766.363281 148.351562 Z M 704.691406 130.121094 C 702.695312 129.0625 700.867188 131.605469 702 133.328125 C 705.914062 139.285156 709.824219 145.246094 713.742188 151.203125 C 715.050781 153.199219 716.324219 155.246094 717.664062 157.253906 C 713.707031 154.96875 709.816406 152.5625 706.070312 149.96875 C 700.453125 146.078125 695.0625 141.402344 693.132812 134.609375 C 692.558594 132.582031 689.195312 132.882812 688.972656 134.96875 C 687.578125 148.015625 694.675781 160.0625 704.4375 168.214844 C 715.25 177.234375 728.851562 182.519531 741.488281 188.40625 C 744.019531 189.589844 719.203125 174.21875 708.96875 166.300781 C 702.074219 160.964844 696.042969 153.519531 693.910156 145.019531 C 696.421875 148.046875 699.527344 150.636719 702.738281 152.898438 C 709.9375 157.972656 717.671875 162.375 725.46875 166.449219 C 727.703125 167.617188 729.574219 164.441406 727.785156 162.835938 C 723.214844 158.742188 720.144531 153.066406 716.808594 147.988281 C 714.71875 144.808594 712.628906 141.628906 710.542969 138.453125 C 727.261719 148.78125 757.589844 178.90625 756.042969 176.582031 C 743.105469 157.101562 725.355469 141.078125 704.691406 130.121094 Z M 576.707031 147.460938 C 561.613281 150.210938 545.925781 145.066406 535.375 133.945312 C 533.457031 131.925781 530.691406 135.257812 532.589844 137.261719 C 541.898438 147.070312 555.289062 152.585938 568.742188 152.53125 C 559.144531 156.460938 533.273438 152.644531 535.90625 153.554688 C 549.722656 158.320312 566.800781 162.664062 578.554688 151.003906 C 579.84375 149.726562 578.511719 147.128906 576.707031 147.460938 Z M 679.695312 82.417969 C 664.460938 73.582031 646.683594 69.640625 629.140625 71.109375 C 626.773438 71.308594 626.449219 75.136719 628.9375 75.394531 C 639.703125 76.511719 650.019531 80.003906 659.164062 85.597656 C 637.074219 80.535156 614.050781 79.808594 591.667969 83.511719 C 588.9375 83.964844 589.289062 88.28125 592.046875 87.824219 C 617.839844 83.554688 644.3125 85.25 669.355469 92.75 C 671.527344 93.402344 672.664062 90.269531 671.140625 88.964844 C 664.96875 83.679688 657.984375 79.433594 650.507812 76.371094 C 660.082031 78.042969 669.347656 81.402344 677.84375 86.328125 C 680.257812 87.734375 682.089844 83.804688 679.695312 82.417969 Z M 434.105469 106.445312 C 444.378906 93.773438 457.882812 83.679688 472.605469 76.429688 C 479.589844 72.992188 486.839844 70.136719 494.242188 67.722656 C 496.738281 66.910156 495.574219 63.597656 493.296875 63.539062 C 467.84375 62.890625 446.8125 77.960938 428.277344 93.976562 C 438.300781 77.46875 454.542969 64.96875 473.09375 59.296875 C 479.378906 57.378906 485.871094 56.332031 492.4375 56.113281 C 495.222656 56.015625 494.835938 51.707031 492.058594 51.800781 C 467.796875 52.613281 444.449219 65.085938 429.675781 84.242188 C 425.4375 89.730469 421.917969 95.757812 419.257812 102.160156 C 418.507812 103.96875 420.730469 106.40625 422.464844 104.851562 C 438.273438 90.6875 455.75 75.328125 476.507812 69.886719 C 456.523438 78.773438 438.351562 91.839844 425.941406 110.09375 C 421.695312 116.335938 418.191406 123.023438 415.617188 130.125 C 414.671875 132.726562 427.941406 114.046875 434.105469 106.445312 Z M 434.398438 290.816406 C 429.984375 293.285156 430.203125 298.988281 430.738281 303.324219 C 430.792969 303.753906 430.851562 304.1875 430.90625 304.617188 C 428.3125 299.621094 425.4375 294.765625 422.289062 290.09375 C 415.878906 280.582031 407.980469 272.015625 402.71875 261.769531 C 401.460938 259.324219 397.382812 260.800781 398.65625 263.28125 C 403.871094 273.425781 411.417969 281.957031 417.867188 291.296875 C 424.617188 301.070312 430.085938 311.648438 434.261719 322.761719 C 435.265625 325.441406 438.941406 323.890625 438.320312 321.253906 C 437.085938 316.007812 436.101562 310.710938 435.371094 305.375 C 435.042969 303.015625 434.105469 299.132812 435.105469 296.496094 C 441.203125 310.269531 444.253906 343.980469 444.742188 341.238281 C 447.722656 324.507812 445.269531 307.046875 437.679688 291.828125 C 437.007812 290.488281 435.710938 290.085938 434.398438 290.816406 Z M 558.320312 176.273438 C 547.347656 176.726562 536.671875 172.585938 528.753906 165.015625 C 526.738281 163.085938 523.964844 166.410156 525.96875 168.332031 C 532.277344 174.363281 540.238281 178.328125 548.71875 179.882812 C 544.933594 180.503906 533.660156 183.351562 536.390625 183.90625 C 544.128906 185.488281 552.1875 184.507812 559.285156 181.027344 C 560.160156 180.597656 560.539062 179.816406 560.558594 179.035156 C 560.8125 177.773438 560.011719 176.207031 558.320312 176.273438 Z M 448.9375 296.011719 C 452.566406 309.65625 453.433594 341.253906 454.027344 338.535156 C 457.230469 323.976562 456.824219 308.902344 452.996094 294.503906 C 452.285156 291.816406 448.222656 293.335938 448.9375 296.011719 Z M 658.878906 66.027344 C 671.066406 67.894531 682.441406 73.0625 691.835938 81.042969 C 693.964844 82.847656 696.75 79.53125 694.621094 77.726562 C 684.683594 69.289062 672.554688 63.742188 659.660156 61.769531 C 656.90625 61.347656 656.121094 65.601562 658.878906 66.027344 Z M 495.503906 91.589844 C 491.015625 94.367188 486.445312 96.992188 481.796875 99.46875 C 487.191406 95.195312 492.292969 90.574219 496.828125 85.339844 C 498.246094 83.710938 496.425781 81.15625 494.414062 81.921875 C 476.429688 88.792969 459.742188 98.78125 445.191406 111.300781 C 438.164062 117.34375 427.242188 136.058594 429.023438 133.910156 C 444.527344 115.214844 464.148438 100.195312 486.179688 90.074219 C 477.964844 97.640625 468.601562 103.914062 459.308594 110.109375 C 457.289062 111.457031 459.03125 114.847656 461.316406 113.902344 C 474.035156 108.652344 486.304688 102.367188 498.007812 95.125 C 500.375 93.65625 497.871094 90.128906 495.503906 91.589844 Z M 544.394531 194.554688 C 539.226562 194.890625 524.570312 192.65625 526.914062 194.160156 C 532.300781 197.617188 538.363281 199.28125 544.773438 198.863281 C 547.554688 198.6875 547.175781 194.375 544.394531 194.554688 Z M 523.824219 73.878906 C 519.839844 76.300781 516.132812 79.117188 512.800781 82.378906 C 510.820312 84.3125 512.886719 76.429688 514.695312 74.988281 C 513.253906 75.242188 511.820312 75.5625 510.394531 75.960938 C 508.484375 76.496094 506.371094 74.242188 507.980469 72.542969 C 511.421875 68.914062 515.585938 66.328125 520.015625 64.074219 C 520.984375 63.582031 525.75 62.007812 525.835938 60.785156 C 525.886719 60.058594 522.75 59.386719 522.085938 59.050781 C 518.609375 57.300781 517.84375 53.164062 519.660156 49.886719 C 521.921875 45.804688 526.882812 45.328125 531.0625 45.523438 C 533.839844 45.652344 533.027344 49.90625 530.28125 49.78125 C 528.226562 49.683594 525.382812 49.726562 523.878906 51.371094 C 522.867188 52.476562 522.566406 54.265625 523.9375 55.136719 C 525.167969 55.921875 526.742188 56.023438 527.988281 56.820312 C 529.285156 57.652344 530.167969 58.949219 530.21875 60.527344 C 530.34375 64.605469 525.4375 66.191406 522.5 67.644531 C 520.902344 68.433594 519.320312 69.277344 517.796875 70.210938 C 519.3125 70.058594 520.84375 69.96875 522.382812 69.957031 C 524.34375 69.949219 525.816406 72.671875 523.824219 73.878906 " fill-opacity="1" fill-rule="nonzero"/></svg>