<svg xmlns="http://www.w3.org/2000/svg" xmlns:xlink="http://www.w3.org/1999/xlink" width="1080" zoomAndPan="magnify" viewBox="0 0 810 809.999993" height="1080" preserveAspectRatio="xMidYMid meet" version="1.0"><defs><clipPath id="e770d980ec"><path d="M 268 23.035156 L 523 23.035156 L 523 190 L 268 190 Z M 268 23.035156 " clip-rule="nonzero"/></clipPath><clipPath id="66dfcdfcfe"><path d="M 317 735 L 370 735 L 370 787.285156 L 317 787.285156 Z M 317 735 " clip-rule="nonzero"/></clipPath><clipPath id="1561e249a6"><path d="M 437 735 L 490 735 L 490 787.285156 L 437 787.285156 Z M 437 735 " clip-rule="nonzero"/></clipPath></defs><path fill="#e7dcec" d="M 312.65625 236.777344 L 478.972656 236.777344 L 478.972656 179.191406 L 312.65625 179.191406 Z M 312.65625 236.777344 " fill-opacity="1" fill-rule="nonzero"/><path fill="#000000" d="M 314.222656 235.207031 L 477.402344 235.207031 L 477.402344 180.757812 L 314.222656 180.757812 L 314.222656 235.207031 M 480.53125 238.34375 L 311.09375 238.34375 L 311.09375 177.628906 L 480.53125 177.628906 L 480.53125 238.34375 " fill-opacity="1" fill-rule="nonzero"/><path fill="#cbb5d6" d="M 513.609375 753.097656 L 285.953125 753.097656 C 276.890625 753.097656 269.542969 745.75 269.542969 736.6875 L 269.542969 241.90625 C 269.542969 232.84375 276.890625 225.496094 285.953125 225.496094 L 513.609375 225.496094 C 522.671875 225.496094 530.019531 232.84375 530.019531 241.90625 L 530.019531 736.6875 C 530.019531 745.75 522.671875 753.097656 513.609375 753.097656 " fill-opacity="1" fill-rule="nonzero"/><path fill="#000000" d="M 284.011719 227.054688 C 276.890625 227.054688 271.101562 232.84375 271.101562 239.960938 L 271.101562 738.628906 C 271.101562 745.742188 276.890625 751.535156 284.011719 751.535156 L 515.550781 751.535156 C 522.664062 751.535156 528.457031 745.742188 528.457031 738.628906 L 528.457031 239.960938 C 528.457031 232.84375 522.664062 227.054688 515.550781 227.054688 L 284.011719 227.054688 M 515.550781 754.664062 L 284.011719 754.664062 C 275.167969 754.664062 267.972656 747.472656 267.972656 738.628906 L 267.972656 239.960938 C 267.972656 231.121094 275.167969 223.925781 284.011719 223.925781 L 515.550781 223.925781 C 524.394531 223.925781 531.589844 231.121094 531.589844 239.960938 L 531.589844 738.628906 C 531.589844 747.472656 524.394531 754.664062 515.550781 754.664062 " fill-opacity="1" fill-rule="nonzero"/><path fill="#e7dcec" d="M 282.898438 723.773438 L 282.898438 254.820312 C 282.898438 246 290.050781 238.847656 298.863281 238.847656 L 500.691406 238.847656 C 509.519531 238.847656 516.664062 246 516.664062 254.820312 L 516.664062 723.773438 C 516.664062 732.589844 509.519531 739.742188 500.691406 739.742188 L 298.863281 739.742188 C 290.050781 739.742188 282.898438 732.589844 282.898438 723.773438 " fill-opacity="1" fill-rule="nonzero"/><path fill="#000000" d="M 296.976562 240.417969 C 290.074219 240.417969 284.464844 246.027344 284.464844 252.925781 L 284.464844 725.664062 C 284.464844 732.558594 290.074219 738.175781 296.976562 738.175781 L 502.585938 738.175781 C 509.488281 738.175781 515.09375 732.558594 515.09375 725.664062 L 515.09375 252.925781 C 515.09375 246.027344 509.488281 240.417969 502.585938 240.417969 L 296.976562 240.417969 M 502.585938 741.3125 L 296.976562 741.3125 C 288.351562 741.3125 281.328125 734.289062 281.328125 725.664062 L 281.328125 252.925781 C 281.328125 244.304688 288.351562 237.28125 296.976562 237.28125 L 502.585938 237.28125 C 511.210938 237.28125 518.234375 244.304688 518.234375 252.925781 L 518.234375 725.664062 C 518.234375 734.289062 511.210938 741.3125 502.585938 741.3125 " fill-opacity="1" fill-rule="nonzero"/><path fill="#e7dcec" d="M 506.242188 188.34375 L 285.382812 188.34375 C 277.054688 188.34375 270.304688 181.589844 270.304688 173.257812 L 270.304688 39.660156 C 270.304688 31.335938 277.054688 24.582031 285.382812 24.582031 L 506.242188 24.582031 C 514.574219 24.582031 521.320312 31.335938 521.320312 39.660156 L 521.320312 173.257812 C 521.320312 181.589844 514.574219 188.34375 506.242188 188.34375 " fill-opacity="1" fill-rule="nonzero"/><g clip-path="url(#e770d980ec)"><path fill="#000000" d="M 283.597656 26.144531 C 277.132812 26.144531 271.867188 31.410156 271.867188 37.871094 L 271.867188 175.046875 C 271.867188 181.515625 277.132812 186.773438 283.597656 186.773438 L 508.03125 186.773438 C 514.492188 186.773438 519.761719 181.515625 519.761719 175.046875 L 519.761719 37.871094 C 519.761719 31.410156 514.492188 26.144531 508.03125 26.144531 L 283.597656 26.144531 M 508.03125 189.902344 L 283.597656 189.902344 C 275.402344 189.902344 268.738281 183.238281 268.738281 175.046875 L 268.738281 37.871094 C 268.738281 29.679688 275.402344 23.015625 283.597656 23.015625 L 508.03125 23.015625 C 516.226562 23.015625 522.890625 29.679688 522.890625 37.871094 L 522.890625 175.046875 C 522.890625 183.238281 516.226562 189.902344 508.03125 189.902344 " fill-opacity="1" fill-rule="nonzero"/></g><path fill="#000000" d="M 482.671875 169.363281 L 307.828125 169.363281 C 299.472656 169.363281 292.707031 162.601562 292.707031 154.253906 L 292.707031 58.671875 C 292.707031 50.324219 299.472656 43.554688 307.828125 43.554688 L 482.671875 43.554688 C 491.019531 43.554688 497.789062 50.324219 497.789062 58.671875 L 497.789062 154.253906 C 497.789062 162.601562 491.019531 169.363281 482.671875 169.363281 " fill-opacity="1" fill-rule="nonzero"/><path fill="#cbb5d6" d="M 482.769531 348.492188 L 308.859375 348.492188 C 303.625 348.492188 299.382812 344.25 299.382812 339.015625 L 299.382812 328.289062 C 299.382812 323.054688 303.625 318.820312 308.859375 318.820312 L 482.769531 318.820312 C 488.003906 318.820312 492.246094 323.054688 492.246094 328.289062 L 492.246094 339.015625 C 492.246094 344.25 488.003906 348.492188 482.769531 348.492188 " fill-opacity="1" fill-rule="nonzero"/><path fill="#000000" d="M 307.738281 320.378906 C 303.992188 320.378906 300.949219 323.425781 300.949219 327.167969 L 300.949219 340.136719 C 300.949219 343.886719 303.992188 346.925781 307.738281 346.925781 L 483.890625 346.925781 C 487.628906 346.925781 490.675781 343.886719 490.675781 340.136719 L 490.675781 327.167969 C 490.675781 323.425781 487.628906 320.378906 483.890625 320.378906 L 307.738281 320.378906 M 483.890625 350.054688 L 307.738281 350.054688 C 302.265625 350.054688 297.820312 345.609375 297.820312 340.136719 L 297.820312 327.167969 C 297.820312 321.703125 302.265625 317.25 307.738281 317.25 L 483.890625 317.25 C 489.359375 317.25 493.808594 321.703125 493.808594 327.167969 L 493.808594 340.136719 C 493.808594 345.609375 489.359375 350.054688 483.890625 350.054688 " fill-opacity="1" fill-rule="nonzero"/><path fill="#cbb5d6" d="M 480.304688 467.5 L 311.324219 467.5 C 304.730469 467.5 299.382812 462.152344 299.382812 455.5625 L 299.382812 393.464844 C 299.382812 386.875 304.730469 381.523438 311.324219 381.523438 L 480.304688 381.523438 C 486.898438 381.523438 492.246094 386.875 492.246094 393.464844 L 492.246094 455.5625 C 492.246094 462.152344 486.898438 467.5 480.304688 467.5 " fill-opacity="1" fill-rule="nonzero"/><path fill="#000000" d="M 309.910156 383.09375 C 304.972656 383.09375 300.949219 387.109375 300.949219 392.050781 L 300.949219 456.976562 C 300.949219 461.917969 304.972656 465.933594 309.910156 465.933594 L 481.71875 465.933594 C 486.652344 465.933594 490.675781 461.917969 490.675781 456.976562 L 490.675781 392.050781 C 490.675781 387.109375 486.652344 383.09375 481.71875 383.09375 L 309.910156 383.09375 M 481.71875 469.070312 L 309.910156 469.070312 C 303.242188 469.070312 297.820312 463.640625 297.820312 456.976562 L 297.820312 392.050781 C 297.820312 385.386719 303.242188 379.964844 309.910156 379.964844 L 481.71875 379.964844 C 488.386719 379.964844 493.808594 385.386719 493.808594 392.050781 L 493.808594 456.976562 C 493.808594 463.640625 488.386719 469.070312 481.71875 469.070312 " fill-opacity="1" fill-rule="nonzero"/><path fill="#b899c7" d="M 332.496094 267.34375 C 332.496094 276.488281 325.085938 283.902344 315.941406 283.902344 C 306.796875 283.902344 299.382812 276.488281 299.382812 267.34375 C 299.382812 258.203125 306.796875 250.789062 315.941406 250.789062 C 325.085938 250.789062 332.496094 258.203125 332.496094 267.34375 " fill-opacity="1" fill-rule="nonzero"/><path fill="#000000" d="M 315.941406 252.359375 C 307.671875 252.359375 300.949219 259.078125 300.949219 267.34375 C 300.949219 275.609375 307.671875 282.332031 315.941406 282.332031 C 324.207031 282.332031 330.929688 275.609375 330.929688 267.34375 C 330.929688 259.078125 324.207031 252.359375 315.941406 252.359375 M 315.941406 285.460938 C 305.949219 285.460938 297.820312 277.335938 297.820312 267.34375 C 297.820312 257.355469 305.949219 249.226562 315.941406 249.226562 C 325.929688 249.226562 334.066406 257.355469 334.066406 267.34375 C 334.066406 277.335938 325.929688 285.460938 315.941406 285.460938 " fill-opacity="1" fill-rule="nonzero"/><path fill="#000000" d="M 245.683594 638.949219 C 243.066406 638.949219 240.484375 638.671875 237.953125 638.113281 C 216.496094 633.308594 205.199219 611.03125 199.492188 593.171875 C 174.894531 516.1875 203.433594 420.171875 267.355469 364.886719 C 268.746094 363.675781 270.859375 363.832031 272.0625 365.230469 C 273.273438 366.617188 273.117188 368.730469 271.722656 369.933594 C 209.734375 423.554688 182.03125 516.585938 205.855469 591.148438 C 211.023438 607.332031 221.046875 627.488281 239.417969 631.59375 C 252.238281 634.472656 267.316406 628.179688 277.824219 615.589844 C 287.691406 603.773438 292.847656 588.742188 297.828125 574.21875 L 349.421875 423.757812 C 350.023438 422.007812 351.917969 421.074219 353.664062 421.675781 C 355.410156 422.277344 356.339844 424.179688 355.738281 425.917969 L 304.144531 576.390625 C 299.203125 590.785156 293.609375 607.105469 282.953125 619.867188 C 272.859375 631.960938 258.886719 638.949219 245.683594 638.949219 " fill-opacity="1" fill-rule="nonzero"/><path fill="#000000" d="M 545.773438 696.882812 C 522.800781 696.882812 498.847656 685.59375 480.832031 666.0625 C 465.765625 649.703125 454.140625 627.523438 445.304688 598.246094 C 432.566406 556.011719 420.457031 492.078125 435.109375 427.339844 C 435.519531 425.539062 437.304688 424.40625 439.101562 424.820312 C 440.898438 425.226562 442.027344 427.015625 441.621094 428.8125 C 427.292969 492.136719 439.191406 554.851562 451.703125 596.320312 C 460.359375 625.003906 471.175781 645.71875 485.75 661.535156 C 503.632812 680.929688 527.660156 691.601562 550.03125 690.066406 C 581.074219 687.929688 610.003906 661.21875 618.816406 626.546875 C 628.144531 589.859375 616.207031 552.519531 604.542969 527.648438 C 602.671875 523.664062 600.6875 519.707031 598.714844 515.746094 C 591.625 501.582031 584.300781 486.925781 581.984375 470.839844 C 580.40625 459.976562 581.230469 449.003906 582.007812 438.386719 C 582.554688 431.070312 583.113281 423.503906 582.863281 416.175781 C 581.539062 377.835938 555.769531 341.039062 520.191406 326.695312 C 518.484375 326.003906 517.65625 324.054688 518.347656 322.347656 C 519.039062 320.640625 520.980469 319.800781 522.695312 320.492188 C 560.640625 335.804688 588.121094 375.054688 589.535156 415.945312 C 589.804688 423.644531 589.226562 431.390625 588.675781 438.882812 C 587.878906 449.613281 587.128906 459.746094 588.59375 469.890625 C 590.753906 484.902344 597.835938 499.070312 604.6875 512.765625 C 606.695312 516.773438 608.695312 520.777344 610.582031 524.808594 C 622.714844 550.664062 635.113281 589.589844 625.292969 628.195312 C 615.78125 665.585938 584.324219 694.40625 550.488281 696.722656 C 548.925781 696.828125 547.347656 696.882812 545.773438 696.882812 " fill-opacity="1" fill-rule="nonzero"/><path fill="#b899c7" d="M 469.015625 424.839844 C 469.015625 444.53125 455.292969 460.496094 438.363281 460.496094 C 421.4375 460.496094 407.71875 444.53125 407.71875 424.839844 C 407.71875 405.144531 421.4375 389.179688 438.363281 389.179688 C 455.292969 389.179688 469.015625 405.144531 469.015625 424.839844 " fill-opacity="1" fill-rule="nonzero"/><path fill="#000000" d="M 438.363281 390.75 C 422.324219 390.75 409.277344 406.039062 409.277344 424.839844 C 409.277344 443.636719 422.324219 458.925781 438.363281 458.925781 C 454.398438 458.925781 467.453125 443.636719 467.453125 424.839844 C 467.453125 406.039062 454.398438 390.75 438.363281 390.75 Z M 438.363281 462.0625 C 420.601562 462.0625 406.148438 445.359375 406.148438 424.839844 C 406.148438 404.316406 420.601562 387.613281 438.363281 387.613281 C 456.132812 387.613281 470.582031 404.316406 470.582031 424.839844 C 470.582031 445.359375 456.132812 462.0625 438.363281 462.0625 " fill-opacity="1" fill-rule="nonzero"/><path fill="#b899c7" d="M 449.921875 424.839844 C 449.921875 432.257812 444.75 438.28125 438.363281 438.28125 C 431.980469 438.28125 426.8125 432.257812 426.8125 424.839844 C 426.8125 417.417969 431.980469 411.394531 438.363281 411.394531 C 444.75 411.394531 449.921875 417.417969 449.921875 424.839844 " fill-opacity="1" fill-rule="nonzero"/><path fill="#000000" d="M 438.363281 412.964844 C 432.859375 412.964844 428.371094 418.289062 428.371094 424.839844 C 428.371094 431.390625 432.859375 436.722656 438.363281 436.722656 C 443.875 436.722656 448.351562 431.390625 448.351562 424.839844 C 448.351562 418.289062 443.875 412.964844 438.363281 412.964844 Z M 438.363281 439.851562 C 431.128906 439.851562 425.242188 433.113281 425.242188 424.839844 C 425.242188 416.5625 431.128906 409.824219 438.363281 409.824219 C 445.597656 409.824219 451.488281 416.5625 451.488281 424.839844 C 451.488281 433.113281 445.597656 439.851562 438.363281 439.851562 " fill-opacity="1" fill-rule="nonzero"/><path fill="#b899c7" d="M 320.742188 424.839844 C 320.742188 444.53125 334.464844 460.496094 351.394531 460.496094 C 368.320312 460.496094 382.039062 444.53125 382.039062 424.839844 C 382.039062 405.144531 368.320312 389.179688 351.394531 389.179688 C 334.464844 389.179688 320.742188 405.144531 320.742188 424.839844 " fill-opacity="1" fill-rule="nonzero"/><path fill="#000000" d="M 351.394531 390.75 C 335.359375 390.75 322.3125 406.039062 322.3125 424.839844 C 322.3125 443.636719 335.359375 458.925781 351.394531 458.925781 C 367.425781 458.925781 380.480469 443.636719 380.480469 424.839844 C 380.480469 406.039062 367.425781 390.75 351.394531 390.75 Z M 351.394531 462.0625 C 333.628906 462.0625 319.175781 445.359375 319.175781 424.839844 C 319.175781 404.316406 333.628906 387.613281 351.394531 387.613281 C 369.15625 387.613281 383.609375 404.316406 383.609375 424.839844 C 383.609375 445.359375 369.15625 462.0625 351.394531 462.0625 " fill-opacity="1" fill-rule="nonzero"/><path fill="#b899c7" d="M 339.835938 424.839844 C 339.835938 432.257812 345.007812 438.28125 351.394531 438.28125 C 357.777344 438.28125 362.945312 432.257812 362.945312 424.839844 C 362.945312 417.417969 357.777344 411.394531 351.394531 411.394531 C 345.007812 411.394531 339.835938 417.417969 339.835938 424.839844 " fill-opacity="1" fill-rule="nonzero"/><path fill="#000000" d="M 351.394531 412.964844 C 345.886719 412.964844 341.40625 418.289062 341.40625 424.839844 C 341.40625 431.390625 345.886719 436.722656 351.394531 436.722656 C 356.898438 436.722656 361.386719 431.390625 361.386719 424.839844 C 361.386719 418.289062 356.898438 412.964844 351.394531 412.964844 Z M 351.394531 439.851562 C 344.160156 439.851562 338.269531 433.113281 338.269531 424.839844 C 338.269531 416.5625 344.160156 409.824219 351.394531 409.824219 C 358.628906 409.824219 364.515625 416.5625 364.515625 424.839844 C 364.515625 433.113281 358.628906 439.851562 351.394531 439.851562 " fill-opacity="1" fill-rule="nonzero"/><path fill="#8189c3" d="M 367.191406 761.273438 C 367.191406 774.5625 356.410156 785.339844 343.121094 785.339844 C 329.824219 785.339844 319.054688 774.5625 319.054688 761.273438 C 319.054688 747.984375 329.824219 737.207031 343.121094 737.207031 C 356.410156 737.207031 367.191406 747.984375 367.191406 761.273438 " fill-opacity="1" fill-rule="nonzero"/><g clip-path="url(#66dfcdfcfe)"><path fill="#000000" d="M 343.121094 739.132812 C 330.902344 739.132812 320.972656 749.066406 320.972656 761.273438 C 320.972656 773.488281 330.902344 783.421875 343.121094 783.421875 C 355.332031 783.421875 365.261719 773.488281 365.261719 761.273438 C 365.261719 749.066406 355.332031 739.132812 343.121094 739.132812 M 343.121094 787.257812 C 328.789062 787.257812 317.132812 775.601562 317.132812 761.273438 C 317.132812 746.945312 328.789062 735.289062 343.121094 735.289062 C 357.453125 735.289062 369.109375 746.945312 369.109375 761.273438 C 369.109375 775.601562 357.453125 787.257812 343.121094 787.257812 " fill-opacity="1" fill-rule="nonzero"/></g><path fill="#8189c3" d="M 487.191406 761.273438 C 487.191406 774.5625 476.410156 785.339844 463.121094 785.339844 C 449.824219 785.339844 439.054688 774.5625 439.054688 761.273438 C 439.054688 747.984375 449.824219 737.207031 463.121094 737.207031 C 476.410156 737.207031 487.191406 747.984375 487.191406 761.273438 " fill-opacity="1" fill-rule="nonzero"/><g clip-path="url(#1561e249a6)"><path fill="#000000" d="M 463.121094 739.132812 C 450.90625 739.132812 440.972656 749.066406 440.972656 761.273438 C 440.972656 773.480469 450.90625 783.421875 463.121094 783.421875 C 475.332031 783.421875 485.265625 773.480469 485.265625 761.273438 C 485.265625 749.066406 475.332031 739.132812 463.121094 739.132812 Z M 463.121094 787.257812 C 448.792969 787.257812 437.136719 775.601562 437.136719 761.273438 C 437.136719 746.945312 448.792969 735.289062 463.121094 735.289062 C 477.453125 735.289062 489.109375 746.945312 489.109375 761.273438 C 489.109375 775.601562 477.453125 787.257812 463.121094 787.257812 " fill-opacity="1" fill-rule="nonzero"/></g><path fill="#a291ab" d="M 317.433594 751.535156 L 284.011719 751.535156 C 276.890625 751.535156 271.101562 745.742188 271.101562 738.628906 L 271.101562 630.625 C 274.753906 628.15625 278.207031 625.171875 281.328125 621.726562 L 281.328125 725.664062 C 281.328125 734.289062 288.351562 741.3125 296.976562 741.3125 L 309.234375 741.3125 C 310.316406 745.804688 313.371094 749.535156 317.433594 751.535156 " fill-opacity="1" fill-rule="nonzero"/><path fill="#000000" d="M 318.441406 753.113281 L 284.960938 753.113281 C 276.445312 753.113281 269.527344 746.195312 269.527344 737.679688 L 269.527344 631.652344 C 270.0625 631.316406 270.582031 630.976562 271.101562 630.625 L 271.101562 738.628906 C 271.101562 745.742188 276.890625 751.535156 284.011719 751.535156 L 317.433594 751.535156 C 317.875 751.746094 318.328125 751.949219 318.792969 752.121094 C 318.671875 752.445312 318.558594 752.78125 318.441406 753.113281 " fill-opacity="1" fill-rule="nonzero"/><path fill="#b9b0bd" d="M 308.8125 738.175781 L 296.976562 738.175781 C 290.074219 738.175781 284.464844 732.558594 284.464844 725.664062 L 284.464844 617.988281 C 294.148438 605.527344 299.445312 590.085938 304.144531 576.390625 L 308.804688 562.800781 L 308.804688 737.679688 C 308.804688 737.847656 308.804688 738.011719 308.8125 738.175781 " fill-opacity="1" fill-rule="nonzero"/><path fill="#000000" d="M 309.234375 741.3125 L 296.976562 741.3125 C 288.351562 741.3125 281.328125 734.289062 281.328125 725.664062 L 281.328125 621.726562 C 281.882812 621.125 282.425781 620.5 282.953125 619.867188 C 283.464844 619.246094 283.96875 618.621094 284.464844 617.988281 L 284.464844 725.664062 C 284.464844 732.558594 290.074219 738.175781 296.976562 738.175781 L 308.8125 738.175781 C 308.84375 739.246094 308.988281 740.296875 309.234375 741.3125 " fill-opacity="1" fill-rule="nonzero"/><path fill="#b9b0bd" d="M 314.222656 223.925781 L 351.917969 223.925781 L 351.917969 189.902344 L 314.222656 189.902344 Z M 314.222656 223.925781 " fill-opacity="1" fill-rule="nonzero"/><path fill="#000000" d="M 312.640625 223.925781 L 314.222656 223.925781 L 314.222656 189.902344 L 312.640625 189.902344 Z M 312.640625 223.925781 " fill-opacity="1" fill-rule="nonzero"/><path fill="#a291ab" d="M 271.101562 622.304688 L 271.101562 370.480469 C 271.3125 370.300781 271.515625 370.121094 271.722656 369.933594 C 273.117188 368.730469 273.273438 366.617188 272.0625 365.230469 C 271.785156 364.902344 271.460938 364.652344 271.101562 364.464844 L 271.101562 239.960938 C 271.101562 232.84375 276.890625 227.054688 284.011719 227.054688 L 317.46875 227.054688 C 313.394531 229.046875 310.324219 232.769531 309.234375 237.28125 L 296.976562 237.28125 C 288.351562 237.28125 281.328125 244.304688 281.328125 252.925781 L 281.328125 610.988281 C 280.230469 612.566406 279.070312 614.101562 277.824219 615.589844 C 275.746094 618.078125 273.492188 620.328125 271.101562 622.304688 " fill-opacity="1" fill-rule="nonzero"/><path fill="#000000" d="M 269.527344 623.554688 L 269.527344 371.867188 C 270.054688 371.398438 270.574219 370.933594 271.101562 370.480469 L 271.101562 622.304688 C 270.582031 622.734375 270.0625 623.148438 269.527344 623.554688 M 271.101562 364.464844 C 270.617188 364.203125 270.078125 364.074219 269.535156 364.074219 C 269.535156 364.074219 269.535156 364.074219 269.527344 364.074219 L 269.527344 240.929688 C 269.527344 232.386719 276.445312 225.503906 284.960938 225.503906 L 312.640625 225.503906 L 312.640625 223.925781 L 351.917969 223.925781 L 351.917969 225.503906 L 324.230469 225.503906 C 321.808594 225.503906 319.507812 226.0625 317.46875 227.054688 L 284.011719 227.054688 C 276.890625 227.054688 271.101562 232.84375 271.101562 239.960938 L 271.101562 364.464844 " fill-opacity="1" fill-rule="nonzero"/><path fill="#b9b0bd" d="M 284.464844 606.097656 L 284.464844 252.925781 C 284.464844 246.027344 290.074219 240.417969 296.976562 240.417969 L 308.8125 240.417969 C 308.804688 240.589844 308.804688 240.757812 308.804688 240.929688 L 308.804688 250.691406 C 302.347656 253.460938 297.820312 259.882812 297.820312 267.34375 C 297.820312 274.804688 302.347656 281.226562 308.804688 284 L 308.804688 317.25 L 307.738281 317.25 C 302.265625 317.25 297.820312 321.703125 297.820312 327.167969 L 297.820312 340.136719 C 297.820312 345.609375 302.265625 350.054688 307.738281 350.054688 L 308.804688 350.054688 L 308.804688 380.011719 C 302.648438 380.574219 297.820312 385.757812 297.820312 392.050781 L 297.820312 456.976562 C 297.820312 463.265625 302.648438 468.460938 308.804688 469.019531 L 308.804688 542.210938 L 297.828125 574.21875 C 294.097656 585.085938 290.277344 596.222656 284.464844 606.097656 " fill-opacity="1" fill-rule="nonzero"/><path fill="#000000" d="M 281.328125 610.988281 L 281.328125 252.925781 C 281.328125 244.304688 288.351562 237.28125 296.976562 237.28125 L 309.234375 237.28125 C 308.988281 238.296875 308.84375 239.34375 308.8125 240.417969 L 296.976562 240.417969 C 290.074219 240.417969 284.464844 246.027344 284.464844 252.925781 L 284.464844 606.097656 C 283.484375 607.761719 282.441406 609.398438 281.328125 610.988281 " fill-opacity="1" fill-rule="nonzero"/><path fill="#b9b0bd" d="M 317.265625 186.773438 L 283.597656 186.773438 C 277.132812 186.773438 271.867188 181.515625 271.867188 175.046875 L 271.867188 37.871094 C 271.867188 31.410156 277.132812 26.144531 283.597656 26.144531 L 317.273438 26.144531 C 312.695312 28.5 309.574219 33.253906 309.574219 38.742188 L 309.574219 43.554688 L 307.828125 43.554688 C 299.472656 43.554688 292.707031 50.324219 292.707031 58.671875 L 292.707031 154.253906 C 292.707031 162.601562 299.472656 169.363281 307.828125 169.363281 L 309.574219 169.363281 L 309.574219 174.175781 C 309.574219 179.664062 312.695312 184.417969 317.265625 186.773438 " fill-opacity="1" fill-rule="nonzero"/><path fill="#000000" d="M 351.917969 189.902344 L 312.640625 189.902344 L 312.640625 188.34375 L 284.492188 188.34375 C 276.636719 188.34375 270.296875 181.996094 270.296875 174.175781 L 270.296875 38.742188 C 270.296875 30.921875 276.636719 24.582031 284.492188 24.582031 L 323.757812 24.582031 C 321.417969 24.582031 319.214844 25.144531 317.273438 26.144531 L 283.597656 26.144531 C 277.132812 26.144531 271.867188 31.410156 271.867188 37.871094 L 271.867188 175.046875 C 271.867188 181.515625 277.132812 186.773438 283.597656 186.773438 L 317.265625 186.773438 C 319.207031 187.773438 321.417969 188.34375 323.757812 188.34375 L 351.917969 188.34375 L 351.917969 189.902344 " fill-opacity="1" fill-rule="nonzero"/><path fill="#000000" d="M 309.574219 169.363281 L 307.828125 169.363281 C 299.472656 169.363281 292.707031 162.601562 292.707031 154.253906 L 292.707031 58.671875 C 292.707031 50.324219 299.472656 43.554688 307.828125 43.554688 L 309.574219 43.554688 L 309.574219 169.363281 " fill-opacity="1" fill-rule="nonzero"/><path fill="#a291ab" d="M 308.804688 346.925781 L 307.738281 346.925781 C 303.992188 346.925781 300.949219 343.886719 300.949219 340.136719 L 300.949219 327.167969 C 300.949219 323.425781 303.992188 320.378906 307.738281 320.378906 L 308.804688 320.378906 L 308.804688 346.925781 " fill-opacity="1" fill-rule="nonzero"/><path fill="#000000" d="M 308.804688 350.054688 L 307.738281 350.054688 C 302.265625 350.054688 297.820312 345.609375 297.820312 340.136719 L 297.820312 327.167969 C 297.820312 321.703125 302.265625 317.25 307.738281 317.25 L 308.804688 317.25 L 308.804688 320.378906 L 307.738281 320.378906 C 303.992188 320.378906 300.949219 323.425781 300.949219 327.167969 L 300.949219 340.136719 C 300.949219 343.886719 303.992188 346.925781 307.738281 346.925781 L 308.804688 346.925781 L 308.804688 350.054688 " fill-opacity="1" fill-rule="nonzero"/><path fill="#a291ab" d="M 308.804688 465.867188 C 304.382812 465.324219 300.949219 461.542969 300.949219 456.976562 L 300.949219 392.050781 C 300.949219 387.484375 304.382812 383.703125 308.804688 383.160156 L 308.804688 465.867188 " fill-opacity="1" fill-rule="nonzero"/><path fill="#000000" d="M 308.804688 469.019531 C 302.648438 468.460938 297.820312 463.265625 297.820312 456.976562 L 297.820312 392.050781 C 297.820312 385.757812 302.648438 380.574219 308.804688 380.011719 L 308.804688 383.160156 C 304.382812 383.703125 300.949219 387.484375 300.949219 392.050781 L 300.949219 456.976562 C 300.949219 461.542969 304.382812 465.324219 308.804688 465.867188 L 308.804688 469.019531 " fill-opacity="1" fill-rule="nonzero"/><path fill="#937a9f" d="M 308.804688 280.519531 C 304.128906 277.984375 300.949219 273.027344 300.949219 267.34375 C 300.949219 261.664062 304.128906 256.707031 308.804688 254.171875 L 308.804688 280.519531 " fill-opacity="1" fill-rule="nonzero"/><path fill="#000000" d="M 308.804688 284 C 302.347656 281.226562 297.820312 274.804688 297.820312 267.34375 C 297.820312 259.882812 302.347656 253.460938 308.804688 250.691406 L 308.804688 254.171875 C 304.128906 256.707031 300.949219 261.664062 300.949219 267.34375 C 300.949219 273.027344 304.128906 277.984375 308.804688 280.519531 L 308.804688 284 " fill-opacity="1" fill-rule="nonzero"/><path fill="#000000" d="M 269.527344 631.652344 L 269.527344 623.554688 C 270.0625 623.148438 270.582031 622.734375 271.101562 622.304688 C 273.492188 620.328125 275.746094 618.078125 277.824219 615.589844 C 279.070312 614.101562 280.230469 612.566406 281.328125 610.988281 C 282.441406 609.398438 283.484375 607.761719 284.464844 606.097656 C 290.277344 596.222656 294.097656 585.085938 297.828125 574.21875 L 308.804688 542.210938 L 308.804688 562.800781 L 304.144531 576.390625 C 299.445312 590.085938 294.148438 605.527344 284.464844 617.988281 C 283.96875 618.621094 283.464844 619.246094 282.953125 619.867188 C 282.425781 620.5 281.882812 621.125 281.328125 621.726562 C 278.207031 625.171875 274.753906 628.15625 271.101562 630.625 C 270.582031 630.976562 270.0625 631.316406 269.527344 631.652344 M 269.527344 371.867188 L 269.527344 364.074219 C 269.535156 364.074219 269.535156 364.074219 269.535156 364.074219 C 270.078125 364.074219 270.617188 364.203125 271.101562 364.464844 C 271.460938 364.652344 271.785156 364.902344 272.0625 365.230469 C 273.273438 366.617188 273.117188 368.730469 271.722656 369.933594 C 271.515625 370.121094 271.3125 370.300781 271.101562 370.480469 C 270.574219 370.933594 270.054688 371.398438 269.527344 371.867188 " fill-opacity="1" fill-rule="nonzero"/><path fill="#676e9c" d="M 324.230469 753.113281 L 322.53125 753.113281 C 322.539062 753.082031 322.554688 753.046875 322.574219 753.023438 C 323.117188 753.082031 323.667969 753.113281 324.230469 753.113281 " fill-opacity="1" fill-rule="nonzero"/><path fill="#000000" d="M 322.53125 753.113281 L 318.441406 753.113281 C 318.558594 752.78125 318.671875 752.445312 318.792969 752.121094 C 319.988281 752.578125 321.253906 752.878906 322.574219 753.023438 C 322.554688 753.046875 322.539062 753.082031 322.53125 753.113281 " fill-opacity="1" fill-rule="nonzero"/><path fill="#000000" d="M 348.265625 618.410156 L 314.867188 618.410156 C 313.949219 618.410156 313.199219 617.671875 313.199219 616.746094 C 313.199219 615.824219 313.949219 615.078125 314.867188 615.078125 L 348.265625 615.078125 C 349.183594 615.078125 349.933594 615.824219 349.933594 616.746094 C 349.933594 617.671875 349.183594 618.410156 348.265625 618.410156 Z M 391.679688 618.410156 L 358.28125 618.410156 C 357.363281 618.410156 356.613281 617.671875 356.613281 616.746094 C 356.613281 615.824219 357.363281 615.078125 358.28125 615.078125 L 391.679688 615.078125 C 392.597656 615.078125 393.347656 615.824219 393.347656 616.746094 C 393.347656 617.671875 392.597656 618.410156 391.679688 618.410156 Z M 405.847656 618.410156 L 401.695312 618.410156 C 400.777344 618.410156 400.027344 617.671875 400.027344 616.746094 C 400.027344 615.824219 400.777344 615.078125 401.695312 615.078125 L 405.847656 615.078125 C 406.773438 615.078125 407.515625 615.824219 407.515625 616.746094 C 407.515625 617.671875 406.773438 618.410156 405.847656 618.410156 " fill-opacity="1" fill-rule="nonzero"/><path fill="#000000" d="M 348.265625 654.757812 L 314.867188 654.757812 C 313.949219 654.757812 313.199219 654.011719 313.199219 653.09375 C 313.199219 652.164062 313.949219 651.417969 314.867188 651.417969 L 348.265625 651.417969 C 349.183594 651.417969 349.933594 652.164062 349.933594 653.09375 C 349.933594 654.011719 349.183594 654.757812 348.265625 654.757812 Z M 391.679688 654.757812 L 358.28125 654.757812 C 357.363281 654.757812 356.613281 654.011719 356.613281 653.09375 C 356.613281 652.164062 357.363281 651.417969 358.28125 651.417969 L 391.679688 651.417969 C 392.597656 651.417969 393.347656 652.164062 393.347656 653.09375 C 393.347656 654.011719 392.597656 654.757812 391.679688 654.757812 Z M 434.476562 654.757812 L 401.695312 654.757812 C 400.777344 654.757812 400.027344 654.011719 400.027344 653.09375 C 400.027344 652.164062 400.777344 651.417969 401.695312 651.417969 L 434.476562 651.417969 C 435.394531 651.417969 436.144531 652.164062 436.144531 653.09375 C 436.144531 654.011719 435.394531 654.757812 434.476562 654.757812 " fill-opacity="1" fill-rule="nonzero"/><path fill="#000000" d="M 402.5 209.652344 L 369.109375 209.652344 C 368.179688 209.652344 367.433594 208.90625 367.433594 207.988281 C 367.433594 207.0625 368.179688 206.3125 369.109375 206.3125 L 402.5 206.3125 C 403.425781 206.3125 404.175781 207.0625 404.175781 207.988281 C 404.175781 208.90625 403.425781 209.652344 402.5 209.652344 Z M 445.914062 209.652344 L 412.523438 209.652344 C 411.59375 209.652344 410.847656 208.90625 410.847656 207.988281 C 410.847656 207.0625 411.59375 206.3125 412.523438 206.3125 L 445.914062 206.3125 C 446.839844 206.3125 447.589844 207.0625 447.589844 207.988281 C 447.589844 208.90625 446.839844 209.652344 445.914062 209.652344 " fill-opacity="1" fill-rule="nonzero"/><path fill="#000000" d="M 346.59375 685.117188 L 313.199219 685.117188 C 312.273438 685.117188 311.527344 684.367188 311.527344 683.441406 C 311.527344 682.523438 312.273438 681.773438 313.199219 681.773438 L 346.59375 681.773438 C 347.519531 681.773438 348.265625 682.523438 348.265625 683.441406 C 348.265625 684.367188 347.519531 685.117188 346.59375 685.117188 Z M 390.007812 685.117188 L 356.613281 685.117188 C 355.6875 685.117188 354.941406 684.367188 354.941406 683.441406 C 354.941406 682.523438 355.6875 681.773438 356.613281 681.773438 L 390.007812 681.773438 C 390.933594 681.773438 391.679688 682.523438 391.679688 683.441406 C 391.679688 684.367188 390.933594 685.117188 390.007812 685.117188 " fill-opacity="1" fill-rule="nonzero"/></svg>